M48
;GenerationSoftware,Autodesk,EAGLE,9.2.2*%
;CreationDate,2020-07-23T01:14:48Z*%
FMAT,2
ICI,OFF
METRIC,TZ,000.000
T8C0.600
T7C0.650
T6C0.800
T5C0.813
T4C0.900
T3C1.000
T2C1.016
T1C1.118
%
G90
M71
T1
X82460Y23770
X87540Y23770
X87540Y21230
X85000Y23770
X82460Y21230
X25400Y44450
X27940Y44450
X30480Y44450
X33020Y44450
X85000Y21230
T2
X10160Y6350
X7620Y6350
X5080Y6350
X22860Y6350
X20320Y6350
X17780Y6350
X48260Y6350
X45720Y6350
X43180Y6350
X35560Y6350
X33020Y6350
X30480Y6350
X70603Y44000
X73397Y44000
X87251Y8739
X80749Y8739
X87251Y13261
X80749Y13261
X19050Y44450
X21590Y44450
X25400Y40640
X30480Y40640
X33020Y40640
X27940Y40640
T3
X14500Y43180
X11000Y43180
X45720Y14810
X45720Y18310
T4
X9570Y27100
X33020Y21590
X33020Y13970
X33020Y36830
X33020Y29210
X21590Y21590
X21590Y13970
X25400Y36830
X29210Y21590
X29210Y13970
X30480Y36830
X30480Y29210
X25400Y29210
X60310Y27500
X52690Y27500
X27940Y29210
X27940Y36830
X25400Y13970
X25400Y21590
X14570Y27100
T5
X26670Y26805
X21590Y24900
X52490Y32190
X55030Y32190
X57570Y32190
X60110Y32190
X62650Y32190
X65190Y32190
X67730Y32190
X70270Y32190
X72810Y32190
X75350Y32190
X77890Y32190
X80430Y32190
X82970Y32190
X85510Y32190
X85510Y39810
X82970Y39810
X80430Y39810
X77890Y39810
X75350Y39810
X72810Y39810
X70270Y39810
X67730Y39810
X65190Y39810
X62650Y39810
X60110Y39810
X57570Y39810
X55030Y39810
X52490Y39810
X25400Y24900
X33020Y26805
X20320Y26805
X19050Y24900
X31750Y24900
X40640Y24900
X39370Y26805
X38100Y24900
X27940Y24900
X34290Y24900
T6
X76540Y28000
X74000Y28000
X71460Y28000
T7
X33020Y10160
X20320Y10160
T8
X15000Y12000
X37500Y12000
M30