G04 EAGLE Gerber RS-274X export*
G75*
%MOMM*%
%FSLAX34Y34*%
%LPD*%
%INBottom Copper*%
%IPPOS*%
%AMOC8*
5,1,8,0,0,1.08239X$1,22.5*%
G01*
%ADD10C,1.930400*%
%ADD11R,1.930400X1.930400*%
%ADD12C,2.184400*%
%ADD13C,1.524000*%
%ADD14C,1.879600*%
%ADD15C,1.879600*%
%ADD16C,1.625600*%
%ADD17C,2.032000*%
%ADD18C,1.056400*%
%ADD19C,0.812800*%
%ADD20C,1.006400*%
%ADD21C,0.406400*%
%ADD22C,0.254000*%

G36*
X911126Y10163D02*
X911126Y10163D01*
X911144Y10161D01*
X911326Y10182D01*
X911509Y10201D01*
X911526Y10206D01*
X911543Y10208D01*
X911718Y10265D01*
X911894Y10319D01*
X911909Y10327D01*
X911926Y10333D01*
X912086Y10423D01*
X912248Y10511D01*
X912261Y10522D01*
X912277Y10531D01*
X912416Y10651D01*
X912557Y10768D01*
X912568Y10782D01*
X912582Y10794D01*
X912694Y10939D01*
X912809Y11082D01*
X912817Y11098D01*
X912828Y11112D01*
X912910Y11277D01*
X912995Y11439D01*
X913000Y11456D01*
X913008Y11472D01*
X913055Y11651D01*
X913106Y11826D01*
X913108Y11844D01*
X913112Y11861D01*
X913139Y12192D01*
X913139Y470308D01*
X913137Y470326D01*
X913139Y470344D01*
X913118Y470526D01*
X913099Y470709D01*
X913094Y470726D01*
X913092Y470743D01*
X913035Y470918D01*
X912981Y471094D01*
X912973Y471109D01*
X912967Y471126D01*
X912877Y471286D01*
X912789Y471448D01*
X912778Y471461D01*
X912769Y471477D01*
X912649Y471616D01*
X912532Y471757D01*
X912518Y471768D01*
X912506Y471782D01*
X912361Y471894D01*
X912218Y472009D01*
X912202Y472017D01*
X912188Y472028D01*
X912023Y472110D01*
X911861Y472195D01*
X911844Y472200D01*
X911828Y472208D01*
X911649Y472255D01*
X911474Y472306D01*
X911456Y472308D01*
X911439Y472312D01*
X911108Y472339D01*
X771431Y472339D01*
X771423Y472338D01*
X771414Y472339D01*
X771220Y472318D01*
X771031Y472299D01*
X771022Y472297D01*
X771013Y472296D01*
X770829Y472237D01*
X770646Y472181D01*
X770638Y472177D01*
X770630Y472174D01*
X770461Y472081D01*
X770292Y471989D01*
X770285Y471984D01*
X770277Y471979D01*
X770130Y471855D01*
X769983Y471732D01*
X769977Y471725D01*
X769970Y471719D01*
X769850Y471567D01*
X769730Y471418D01*
X769726Y471410D01*
X769721Y471403D01*
X769633Y471230D01*
X769545Y471061D01*
X769542Y471052D01*
X769538Y471044D01*
X769486Y470858D01*
X769433Y470674D01*
X769433Y470665D01*
X769430Y470656D01*
X769416Y470463D01*
X769400Y470272D01*
X769401Y470264D01*
X769401Y470255D01*
X769425Y470062D01*
X769447Y469873D01*
X769450Y469864D01*
X769451Y469855D01*
X769512Y469673D01*
X769572Y469490D01*
X769577Y469482D01*
X769579Y469474D01*
X769676Y469307D01*
X769770Y469139D01*
X769776Y469132D01*
X769780Y469125D01*
X769995Y468872D01*
X808177Y430690D01*
X808873Y429010D01*
X808873Y409111D01*
X808875Y409089D01*
X808873Y409066D01*
X808895Y408889D01*
X808913Y408710D01*
X808919Y408689D01*
X808922Y408667D01*
X808978Y408497D01*
X809031Y408325D01*
X809041Y408306D01*
X809048Y408285D01*
X809137Y408129D01*
X809223Y407971D01*
X809237Y407954D01*
X809248Y407935D01*
X809365Y407800D01*
X809480Y407662D01*
X809498Y407648D01*
X809512Y407631D01*
X809654Y407522D01*
X809794Y407410D01*
X809814Y407399D01*
X809832Y407386D01*
X810127Y407234D01*
X810343Y407144D01*
X813345Y404143D01*
X814969Y400222D01*
X814969Y395978D01*
X814066Y393797D01*
X814062Y393784D01*
X814055Y393773D01*
X814004Y393593D01*
X813949Y393412D01*
X813948Y393399D01*
X813944Y393386D01*
X813929Y393198D01*
X813911Y393011D01*
X813912Y392998D01*
X813911Y392984D01*
X813933Y392798D01*
X813953Y392611D01*
X813957Y392598D01*
X813958Y392585D01*
X814016Y392406D01*
X814072Y392226D01*
X814079Y392215D01*
X814083Y392202D01*
X814175Y392038D01*
X814266Y391873D01*
X814274Y391863D01*
X814281Y391851D01*
X814403Y391709D01*
X814525Y391565D01*
X814535Y391557D01*
X814544Y391546D01*
X814692Y391432D01*
X814840Y391314D01*
X814852Y391308D01*
X814862Y391300D01*
X815030Y391216D01*
X815198Y391130D01*
X815211Y391126D01*
X815223Y391120D01*
X815405Y391071D01*
X815585Y391020D01*
X815598Y391019D01*
X815611Y391016D01*
X815942Y390989D01*
X818058Y390989D01*
X818071Y390990D01*
X818085Y390989D01*
X818271Y391010D01*
X818458Y391029D01*
X818471Y391033D01*
X818485Y391034D01*
X818664Y391092D01*
X818843Y391147D01*
X818855Y391153D01*
X818868Y391157D01*
X819033Y391249D01*
X819197Y391339D01*
X819208Y391347D01*
X819219Y391354D01*
X819363Y391476D01*
X819507Y391596D01*
X819515Y391607D01*
X819525Y391615D01*
X819642Y391764D01*
X819759Y391910D01*
X819765Y391922D01*
X819773Y391932D01*
X819858Y392101D01*
X819945Y392267D01*
X819948Y392280D01*
X819954Y392292D01*
X820004Y392475D01*
X820056Y392654D01*
X820057Y392668D01*
X820061Y392681D01*
X820073Y392869D01*
X820089Y393056D01*
X820087Y393069D01*
X820088Y393082D01*
X820064Y393270D01*
X820042Y393455D01*
X820038Y393468D01*
X820036Y393481D01*
X819934Y393797D01*
X819031Y395978D01*
X819031Y400222D01*
X820655Y404143D01*
X823657Y407145D01*
X827578Y408769D01*
X831822Y408769D01*
X835743Y407145D01*
X838745Y404143D01*
X840369Y400222D01*
X840369Y395978D01*
X839466Y393797D01*
X839462Y393784D01*
X839455Y393773D01*
X839404Y393593D01*
X839349Y393412D01*
X839348Y393399D01*
X839344Y393386D01*
X839329Y393198D01*
X839311Y393011D01*
X839312Y392998D01*
X839311Y392984D01*
X839333Y392798D01*
X839353Y392611D01*
X839357Y392598D01*
X839358Y392585D01*
X839416Y392406D01*
X839472Y392226D01*
X839479Y392215D01*
X839483Y392202D01*
X839575Y392038D01*
X839666Y391873D01*
X839674Y391863D01*
X839681Y391851D01*
X839803Y391709D01*
X839925Y391565D01*
X839935Y391557D01*
X839944Y391546D01*
X840092Y391432D01*
X840240Y391314D01*
X840252Y391308D01*
X840262Y391300D01*
X840430Y391216D01*
X840598Y391130D01*
X840611Y391126D01*
X840623Y391120D01*
X840805Y391071D01*
X840985Y391020D01*
X840998Y391019D01*
X841011Y391016D01*
X841342Y390989D01*
X843458Y390989D01*
X843471Y390990D01*
X843485Y390989D01*
X843671Y391010D01*
X843858Y391029D01*
X843871Y391033D01*
X843885Y391034D01*
X844064Y391092D01*
X844243Y391147D01*
X844255Y391153D01*
X844268Y391157D01*
X844433Y391249D01*
X844597Y391339D01*
X844608Y391347D01*
X844619Y391354D01*
X844763Y391476D01*
X844907Y391596D01*
X844915Y391607D01*
X844925Y391615D01*
X845042Y391764D01*
X845159Y391910D01*
X845165Y391922D01*
X845173Y391932D01*
X845258Y392101D01*
X845345Y392267D01*
X845348Y392280D01*
X845354Y392292D01*
X845404Y392475D01*
X845456Y392654D01*
X845457Y392668D01*
X845461Y392681D01*
X845473Y392869D01*
X845489Y393056D01*
X845487Y393069D01*
X845488Y393082D01*
X845464Y393270D01*
X845442Y393455D01*
X845438Y393468D01*
X845436Y393481D01*
X845334Y393797D01*
X844431Y395978D01*
X844431Y400222D01*
X846055Y404143D01*
X849057Y407145D01*
X852978Y408769D01*
X857222Y408769D01*
X861143Y407145D01*
X864145Y404143D01*
X865769Y400222D01*
X865769Y395978D01*
X864145Y392057D01*
X861143Y389055D01*
X857777Y387661D01*
X857766Y387655D01*
X857753Y387651D01*
X857588Y387560D01*
X857423Y387471D01*
X857412Y387463D01*
X857401Y387456D01*
X857257Y387334D01*
X857112Y387215D01*
X857104Y387204D01*
X857094Y387196D01*
X856977Y387048D01*
X856858Y386902D01*
X856852Y386890D01*
X856844Y386880D01*
X856759Y386712D01*
X856671Y386546D01*
X856668Y386533D01*
X856662Y386521D01*
X856611Y386340D01*
X856558Y386159D01*
X856557Y386146D01*
X856554Y386133D01*
X856540Y385944D01*
X856524Y385758D01*
X856525Y385745D01*
X856524Y385731D01*
X856548Y385543D01*
X856569Y385358D01*
X856573Y385345D01*
X856575Y385332D01*
X856634Y385154D01*
X856692Y384975D01*
X856699Y384963D01*
X856703Y384950D01*
X856797Y384787D01*
X856888Y384623D01*
X856897Y384613D01*
X856904Y384601D01*
X857118Y384348D01*
X882305Y359162D01*
X883877Y357590D01*
X884573Y355910D01*
X884573Y289090D01*
X883877Y287410D01*
X865565Y269098D01*
X865538Y269065D01*
X865506Y269037D01*
X865410Y268910D01*
X865310Y268786D01*
X865290Y268749D01*
X865264Y268715D01*
X865195Y268571D01*
X865121Y268431D01*
X865109Y268390D01*
X865091Y268352D01*
X865052Y268197D01*
X865006Y268045D01*
X865002Y268003D01*
X864992Y267962D01*
X864984Y267803D01*
X864970Y267644D01*
X864974Y267602D01*
X864972Y267560D01*
X864996Y267402D01*
X865013Y267244D01*
X865026Y267203D01*
X865032Y267161D01*
X865087Y267012D01*
X865135Y266860D01*
X865155Y266823D01*
X865170Y266783D01*
X865253Y266647D01*
X865330Y266507D01*
X865357Y266475D01*
X865379Y266439D01*
X865487Y266322D01*
X865590Y266200D01*
X865623Y266174D01*
X865652Y266143D01*
X865781Y266050D01*
X865906Y265951D01*
X865944Y265932D01*
X865978Y265907D01*
X866123Y265841D01*
X866265Y265768D01*
X866306Y265757D01*
X866344Y265740D01*
X866499Y265703D01*
X866653Y265660D01*
X866695Y265657D01*
X866736Y265648D01*
X866895Y265643D01*
X867054Y265631D01*
X867096Y265636D01*
X867139Y265635D01*
X867296Y265661D01*
X867454Y265681D01*
X867494Y265695D01*
X867536Y265702D01*
X867685Y265759D01*
X867835Y265810D01*
X867872Y265831D01*
X867912Y265846D01*
X868147Y265989D01*
X868184Y266011D01*
X868189Y266015D01*
X868195Y266018D01*
X869143Y266707D01*
X870817Y267560D01*
X872604Y268141D01*
X872607Y268141D01*
X872607Y238462D01*
X872608Y238444D01*
X872607Y238427D01*
X872628Y238244D01*
X872647Y238062D01*
X872652Y238045D01*
X872654Y238027D01*
X872711Y237852D01*
X872765Y237677D01*
X872773Y237661D01*
X872779Y237644D01*
X872869Y237484D01*
X872956Y237323D01*
X872968Y237309D01*
X872977Y237293D01*
X873097Y237154D01*
X873214Y237013D01*
X873228Y237002D01*
X873240Y236989D01*
X873385Y236876D01*
X873528Y236761D01*
X873544Y236753D01*
X873558Y236742D01*
X873723Y236660D01*
X873885Y236576D01*
X873902Y236571D01*
X873918Y236563D01*
X874097Y236515D01*
X874182Y236490D01*
X874235Y236328D01*
X874289Y236152D01*
X874297Y236137D01*
X874303Y236120D01*
X874393Y235960D01*
X874481Y235798D01*
X874492Y235785D01*
X874501Y235769D01*
X874621Y235630D01*
X874739Y235489D01*
X874752Y235478D01*
X874764Y235464D01*
X874909Y235352D01*
X875052Y235237D01*
X875068Y235229D01*
X875082Y235218D01*
X875247Y235136D01*
X875410Y235051D01*
X875427Y235046D01*
X875443Y235038D01*
X875621Y234990D01*
X875796Y234940D01*
X875814Y234938D01*
X875831Y234934D01*
X876162Y234907D01*
X887045Y234907D01*
X887045Y234904D01*
X886464Y233117D01*
X885611Y231443D01*
X884506Y229922D01*
X883178Y228594D01*
X881657Y227489D01*
X880324Y226810D01*
X880213Y226739D01*
X880099Y226676D01*
X880044Y226630D01*
X879985Y226592D01*
X879891Y226501D01*
X879791Y226417D01*
X879746Y226361D01*
X879695Y226312D01*
X879621Y226204D01*
X879540Y226102D01*
X879507Y226039D01*
X879467Y225981D01*
X879415Y225860D01*
X879356Y225744D01*
X879336Y225676D01*
X879308Y225610D01*
X879282Y225482D01*
X879246Y225357D01*
X879241Y225286D01*
X879226Y225216D01*
X879225Y225085D01*
X879215Y224955D01*
X879223Y224885D01*
X879223Y224814D01*
X879248Y224685D01*
X879264Y224556D01*
X879286Y224488D01*
X879299Y224418D01*
X879349Y224297D01*
X879390Y224173D01*
X879425Y224112D01*
X879452Y224046D01*
X879525Y223937D01*
X879589Y223824D01*
X879636Y223770D01*
X879676Y223711D01*
X879768Y223619D01*
X879854Y223520D01*
X879910Y223477D01*
X879961Y223427D01*
X880070Y223354D01*
X880173Y223275D01*
X880246Y223237D01*
X880296Y223204D01*
X880367Y223175D01*
X880468Y223123D01*
X882163Y222421D01*
X885521Y219063D01*
X887339Y214675D01*
X887339Y191129D01*
X885521Y186741D01*
X882163Y183383D01*
X877775Y181565D01*
X873025Y181565D01*
X868637Y183383D01*
X865279Y186741D01*
X864577Y188437D01*
X864572Y188444D01*
X864570Y188453D01*
X864477Y188623D01*
X864386Y188791D01*
X864381Y188798D01*
X864376Y188806D01*
X864252Y188955D01*
X864130Y189102D01*
X864123Y189107D01*
X864117Y189114D01*
X863966Y189235D01*
X863817Y189356D01*
X863810Y189360D01*
X863802Y189365D01*
X863630Y189454D01*
X863461Y189543D01*
X863452Y189545D01*
X863444Y189549D01*
X863260Y189601D01*
X863074Y189656D01*
X863065Y189656D01*
X863057Y189659D01*
X862866Y189674D01*
X862673Y189690D01*
X862664Y189689D01*
X862656Y189690D01*
X862464Y189667D01*
X862273Y189645D01*
X862265Y189642D01*
X862256Y189641D01*
X862074Y189581D01*
X861890Y189522D01*
X861882Y189518D01*
X861874Y189515D01*
X861708Y189420D01*
X861538Y189326D01*
X861532Y189320D01*
X861524Y189315D01*
X861380Y189190D01*
X861233Y189064D01*
X861227Y189057D01*
X861220Y189051D01*
X861103Y188899D01*
X860984Y188747D01*
X860980Y188739D01*
X860975Y188732D01*
X860823Y188437D01*
X860121Y186741D01*
X856763Y183383D01*
X852375Y181565D01*
X847625Y181565D01*
X843237Y183383D01*
X842688Y183932D01*
X842674Y183944D01*
X842662Y183957D01*
X842519Y184071D01*
X842376Y184188D01*
X842360Y184196D01*
X842346Y184207D01*
X842183Y184290D01*
X842020Y184376D01*
X842003Y184381D01*
X841987Y184389D01*
X841811Y184439D01*
X841635Y184491D01*
X841617Y184493D01*
X841600Y184497D01*
X841417Y184511D01*
X841234Y184527D01*
X841216Y184525D01*
X841198Y184527D01*
X841016Y184504D01*
X840833Y184484D01*
X840816Y184479D01*
X840799Y184476D01*
X840624Y184418D01*
X840449Y184362D01*
X840434Y184354D01*
X840417Y184348D01*
X840257Y184256D01*
X840097Y184168D01*
X840084Y184156D01*
X840068Y184147D01*
X839815Y183932D01*
X834128Y178245D01*
X832556Y176673D01*
X830875Y175977D01*
X818325Y175977D01*
X816644Y176673D01*
X807769Y185548D01*
X807073Y187229D01*
X807073Y214616D01*
X807071Y214642D01*
X807073Y214669D01*
X807051Y214843D01*
X807033Y215016D01*
X807026Y215042D01*
X807022Y215069D01*
X806967Y215234D01*
X806915Y215401D01*
X806902Y215425D01*
X806894Y215450D01*
X806807Y215602D01*
X806723Y215755D01*
X806706Y215776D01*
X806693Y215799D01*
X806478Y216052D01*
X800535Y221995D01*
X799839Y223676D01*
X799839Y273224D01*
X800535Y274905D01*
X805095Y279465D01*
X806776Y280161D01*
X854950Y280161D01*
X854976Y280163D01*
X855003Y280161D01*
X855177Y280183D01*
X855350Y280201D01*
X855376Y280208D01*
X855403Y280212D01*
X855568Y280267D01*
X855735Y280319D01*
X855759Y280332D01*
X855784Y280340D01*
X855936Y280427D01*
X856089Y280511D01*
X856110Y280528D01*
X856133Y280541D01*
X856386Y280756D01*
X869244Y293614D01*
X869261Y293635D01*
X869282Y293652D01*
X869389Y293790D01*
X869499Y293925D01*
X869512Y293949D01*
X869528Y293970D01*
X869606Y294127D01*
X869688Y294281D01*
X869696Y294307D01*
X869708Y294331D01*
X869753Y294500D01*
X869803Y294667D01*
X869805Y294694D01*
X869812Y294719D01*
X869839Y295050D01*
X869839Y347853D01*
X869837Y347879D01*
X869839Y347906D01*
X869817Y348080D01*
X869799Y348253D01*
X869792Y348279D01*
X869788Y348305D01*
X869733Y348471D01*
X869681Y348638D01*
X869668Y348662D01*
X869660Y348687D01*
X869573Y348839D01*
X869489Y348992D01*
X869472Y349013D01*
X869459Y349036D01*
X869244Y349289D01*
X842873Y375660D01*
X842852Y375677D01*
X842835Y375698D01*
X842697Y375805D01*
X842561Y375915D01*
X842538Y375928D01*
X842517Y375944D01*
X842360Y376022D01*
X842206Y376104D01*
X842180Y376112D01*
X842156Y376124D01*
X841987Y376169D01*
X841820Y376219D01*
X841793Y376221D01*
X841767Y376228D01*
X841437Y376255D01*
X768739Y376255D01*
X767058Y376951D01*
X757173Y386836D01*
X757152Y386853D01*
X757135Y386874D01*
X756997Y386981D01*
X756862Y387091D01*
X756838Y387104D01*
X756817Y387120D01*
X756660Y387198D01*
X756506Y387280D01*
X756480Y387288D01*
X756456Y387300D01*
X756287Y387345D01*
X756120Y387395D01*
X756093Y387397D01*
X756068Y387404D01*
X755737Y387431D01*
X751378Y387431D01*
X747457Y389055D01*
X744455Y392057D01*
X742831Y395978D01*
X742831Y400222D01*
X744455Y404143D01*
X747457Y407145D01*
X751378Y408769D01*
X755622Y408769D01*
X759543Y407145D01*
X762545Y404143D01*
X764169Y400222D01*
X764169Y395978D01*
X763750Y394967D01*
X763743Y394945D01*
X763733Y394925D01*
X763685Y394753D01*
X763633Y394581D01*
X763631Y394559D01*
X763625Y394537D01*
X763612Y394358D01*
X763595Y394180D01*
X763598Y394158D01*
X763596Y394136D01*
X763618Y393958D01*
X763637Y393780D01*
X763644Y393759D01*
X763646Y393737D01*
X763703Y393567D01*
X763757Y393396D01*
X763767Y393376D01*
X763775Y393355D01*
X763864Y393200D01*
X763950Y393042D01*
X763964Y393025D01*
X763975Y393006D01*
X764190Y392753D01*
X766148Y390795D01*
X766152Y390792D01*
X766155Y390789D01*
X766308Y390664D01*
X766460Y390540D01*
X766464Y390538D01*
X766467Y390535D01*
X766645Y390442D01*
X766816Y390351D01*
X766820Y390350D01*
X766824Y390348D01*
X767014Y390292D01*
X767201Y390236D01*
X767206Y390236D01*
X767210Y390235D01*
X767403Y390218D01*
X767602Y390200D01*
X767607Y390200D01*
X767611Y390200D01*
X767801Y390221D01*
X768003Y390243D01*
X768007Y390245D01*
X768011Y390245D01*
X768194Y390304D01*
X768387Y390365D01*
X768391Y390367D01*
X768395Y390368D01*
X768567Y390465D01*
X768739Y390560D01*
X768742Y390562D01*
X768746Y390565D01*
X768898Y390695D01*
X769046Y390820D01*
X769049Y390824D01*
X769052Y390827D01*
X769173Y390981D01*
X769295Y391136D01*
X769297Y391140D01*
X769300Y391144D01*
X769389Y391320D01*
X769478Y391495D01*
X769479Y391499D01*
X769481Y391503D01*
X769533Y391693D01*
X769586Y391883D01*
X769586Y391887D01*
X769587Y391892D01*
X769601Y392087D01*
X769615Y392284D01*
X769615Y392289D01*
X769615Y392293D01*
X769589Y392490D01*
X769565Y392684D01*
X769563Y392688D01*
X769563Y392693D01*
X769461Y393008D01*
X768231Y395978D01*
X768231Y400222D01*
X769855Y404143D01*
X772857Y407145D01*
X776778Y408769D01*
X781022Y408769D01*
X784943Y407145D01*
X787945Y404143D01*
X789569Y400222D01*
X789569Y395978D01*
X789150Y394967D01*
X789143Y394945D01*
X789133Y394925D01*
X789085Y394753D01*
X789033Y394581D01*
X789031Y394559D01*
X789025Y394537D01*
X789012Y394358D01*
X788995Y394180D01*
X788998Y394158D01*
X788996Y394136D01*
X789018Y393958D01*
X789037Y393780D01*
X789043Y393759D01*
X789046Y393737D01*
X789103Y393567D01*
X789157Y393396D01*
X789167Y393376D01*
X789175Y393355D01*
X789264Y393199D01*
X789350Y393042D01*
X789364Y393025D01*
X789375Y393006D01*
X789590Y392753D01*
X790759Y391584D01*
X790780Y391567D01*
X790798Y391546D01*
X790936Y391439D01*
X791071Y391329D01*
X791095Y391316D01*
X791116Y391300D01*
X791273Y391222D01*
X791427Y391140D01*
X791452Y391132D01*
X791476Y391120D01*
X791646Y391075D01*
X791813Y391025D01*
X791839Y391023D01*
X791865Y391016D01*
X792196Y390989D01*
X792658Y390989D01*
X792671Y390990D01*
X792685Y390989D01*
X792871Y391010D01*
X793058Y391029D01*
X793071Y391033D01*
X793085Y391034D01*
X793264Y391092D01*
X793443Y391147D01*
X793455Y391153D01*
X793468Y391157D01*
X793633Y391249D01*
X793797Y391339D01*
X793808Y391347D01*
X793819Y391354D01*
X793963Y391476D01*
X794107Y391596D01*
X794115Y391607D01*
X794125Y391615D01*
X794242Y391764D01*
X794359Y391910D01*
X794365Y391922D01*
X794373Y391932D01*
X794458Y392101D01*
X794545Y392267D01*
X794548Y392280D01*
X794554Y392292D01*
X794604Y392475D01*
X794656Y392654D01*
X794657Y392668D01*
X794661Y392681D01*
X794673Y392869D01*
X794689Y393056D01*
X794687Y393069D01*
X794688Y393082D01*
X794664Y393270D01*
X794642Y393455D01*
X794638Y393468D01*
X794636Y393481D01*
X794534Y393797D01*
X793631Y395978D01*
X793631Y400222D01*
X795255Y404143D01*
X798257Y407144D01*
X798473Y407234D01*
X798493Y407245D01*
X798514Y407252D01*
X798670Y407340D01*
X798828Y407424D01*
X798845Y407439D01*
X798865Y407450D01*
X799001Y407567D01*
X799139Y407681D01*
X799153Y407698D01*
X799170Y407713D01*
X799279Y407854D01*
X799392Y407993D01*
X799403Y408013D01*
X799416Y408031D01*
X799496Y408191D01*
X799579Y408350D01*
X799586Y408371D01*
X799596Y408391D01*
X799642Y408565D01*
X799692Y408736D01*
X799694Y408759D01*
X799700Y408780D01*
X799727Y409111D01*
X799727Y425365D01*
X799725Y425391D01*
X799727Y425418D01*
X799705Y425592D01*
X799687Y425765D01*
X799680Y425791D01*
X799676Y425817D01*
X799621Y425983D01*
X799569Y426150D01*
X799556Y426174D01*
X799548Y426199D01*
X799461Y426351D01*
X799377Y426504D01*
X799360Y426525D01*
X799347Y426548D01*
X799132Y426801D01*
X761101Y464832D01*
X761080Y464849D01*
X761063Y464870D01*
X760925Y464977D01*
X760789Y465087D01*
X760766Y465100D01*
X760745Y465116D01*
X760588Y465194D01*
X760434Y465276D01*
X760408Y465284D01*
X760384Y465296D01*
X760215Y465341D01*
X760048Y465391D01*
X760021Y465393D01*
X759995Y465400D01*
X759665Y465427D01*
X340458Y465427D01*
X340450Y465426D01*
X340441Y465427D01*
X340249Y465406D01*
X340058Y465387D01*
X340049Y465385D01*
X340040Y465384D01*
X339858Y465326D01*
X339673Y465269D01*
X339665Y465265D01*
X339657Y465262D01*
X339488Y465169D01*
X339319Y465077D01*
X339312Y465072D01*
X339304Y465067D01*
X339156Y464942D01*
X339010Y464820D01*
X339004Y464813D01*
X338997Y464807D01*
X338877Y464655D01*
X338757Y464506D01*
X338753Y464498D01*
X338748Y464491D01*
X338660Y464319D01*
X338572Y464149D01*
X338569Y464140D01*
X338565Y464132D01*
X338514Y463946D01*
X338460Y463762D01*
X338460Y463753D01*
X338457Y463744D01*
X338443Y463551D01*
X338428Y463360D01*
X338429Y463352D01*
X338428Y463343D01*
X338452Y463149D01*
X338474Y462961D01*
X338477Y462952D01*
X338478Y462943D01*
X338540Y462760D01*
X338599Y462578D01*
X338604Y462570D01*
X338607Y462562D01*
X338702Y462396D01*
X338797Y462227D01*
X338803Y462220D01*
X338808Y462213D01*
X339022Y461960D01*
X340321Y460661D01*
X342139Y456273D01*
X342139Y432727D01*
X340321Y428339D01*
X336722Y424740D01*
X336711Y424726D01*
X336697Y424715D01*
X336583Y424570D01*
X336467Y424429D01*
X336459Y424413D01*
X336447Y424399D01*
X336364Y424235D01*
X336278Y424073D01*
X336273Y424056D01*
X336265Y424040D01*
X336216Y423863D01*
X336163Y423687D01*
X336162Y423669D01*
X336157Y423652D01*
X336144Y423469D01*
X336127Y423286D01*
X336129Y423268D01*
X336128Y423250D01*
X336151Y423068D01*
X336170Y422886D01*
X336176Y422869D01*
X336178Y422851D01*
X336236Y422677D01*
X336292Y422502D01*
X336301Y422486D01*
X336306Y422469D01*
X336398Y422310D01*
X336487Y422150D01*
X336498Y422136D01*
X336507Y422120D01*
X336722Y421867D01*
X338814Y419776D01*
X340361Y416041D01*
X340361Y396759D01*
X338814Y393024D01*
X335956Y390166D01*
X332221Y388619D01*
X328179Y388619D01*
X324444Y390166D01*
X321586Y393024D01*
X320039Y396759D01*
X320039Y416041D01*
X321586Y419776D01*
X323678Y421867D01*
X323689Y421881D01*
X323703Y421893D01*
X323816Y422037D01*
X323933Y422179D01*
X323941Y422195D01*
X323953Y422209D01*
X324036Y422373D01*
X324122Y422535D01*
X324127Y422552D01*
X324135Y422568D01*
X324184Y422745D01*
X324237Y422921D01*
X324238Y422938D01*
X324243Y422956D01*
X324256Y423139D01*
X324273Y423322D01*
X324271Y423339D01*
X324272Y423357D01*
X324249Y423539D01*
X324230Y423722D01*
X324224Y423739D01*
X324222Y423757D01*
X324164Y423930D01*
X324108Y424106D01*
X324099Y424121D01*
X324094Y424138D01*
X324002Y424298D01*
X323913Y424458D01*
X323902Y424471D01*
X323893Y424487D01*
X323678Y424740D01*
X320079Y428339D01*
X319377Y430035D01*
X319372Y430042D01*
X319370Y430051D01*
X319278Y430219D01*
X319186Y430389D01*
X319181Y430396D01*
X319176Y430404D01*
X319053Y430551D01*
X318930Y430700D01*
X318923Y430705D01*
X318917Y430712D01*
X318767Y430832D01*
X318617Y430954D01*
X318609Y430958D01*
X318603Y430963D01*
X318432Y431051D01*
X318261Y431141D01*
X318252Y431143D01*
X318244Y431147D01*
X318061Y431199D01*
X317875Y431254D01*
X317865Y431254D01*
X317857Y431257D01*
X317666Y431272D01*
X317473Y431288D01*
X317464Y431287D01*
X317456Y431288D01*
X317265Y431265D01*
X317073Y431243D01*
X317065Y431240D01*
X317056Y431239D01*
X316873Y431179D01*
X316690Y431120D01*
X316682Y431116D01*
X316674Y431113D01*
X316506Y431017D01*
X316339Y430924D01*
X316332Y430918D01*
X316324Y430913D01*
X316179Y430787D01*
X316033Y430662D01*
X316027Y430655D01*
X316020Y430649D01*
X315903Y430496D01*
X315784Y430345D01*
X315780Y430337D01*
X315775Y430330D01*
X315623Y430035D01*
X314921Y428339D01*
X311322Y424740D01*
X311311Y424726D01*
X311297Y424715D01*
X311183Y424570D01*
X311067Y424429D01*
X311059Y424413D01*
X311047Y424399D01*
X310964Y424235D01*
X310878Y424073D01*
X310873Y424056D01*
X310865Y424040D01*
X310816Y423863D01*
X310763Y423687D01*
X310762Y423669D01*
X310757Y423652D01*
X310744Y423469D01*
X310727Y423286D01*
X310729Y423268D01*
X310728Y423250D01*
X310751Y423068D01*
X310770Y422886D01*
X310776Y422869D01*
X310778Y422851D01*
X310836Y422677D01*
X310892Y422502D01*
X310901Y422486D01*
X310906Y422469D01*
X310998Y422310D01*
X311087Y422150D01*
X311098Y422136D01*
X311107Y422120D01*
X311322Y421867D01*
X313414Y419776D01*
X314961Y416041D01*
X314961Y396759D01*
X313414Y393024D01*
X310556Y390166D01*
X306821Y388619D01*
X302779Y388619D01*
X299044Y390166D01*
X296186Y393024D01*
X294639Y396759D01*
X294639Y416041D01*
X296186Y419776D01*
X298278Y421867D01*
X298289Y421881D01*
X298303Y421893D01*
X298416Y422037D01*
X298533Y422179D01*
X298541Y422195D01*
X298553Y422209D01*
X298636Y422373D01*
X298722Y422535D01*
X298727Y422552D01*
X298735Y422568D01*
X298784Y422745D01*
X298837Y422921D01*
X298838Y422938D01*
X298843Y422956D01*
X298856Y423139D01*
X298873Y423322D01*
X298871Y423339D01*
X298872Y423357D01*
X298849Y423539D01*
X298830Y423722D01*
X298824Y423739D01*
X298822Y423757D01*
X298764Y423930D01*
X298708Y424106D01*
X298699Y424121D01*
X298694Y424138D01*
X298602Y424298D01*
X298513Y424458D01*
X298502Y424471D01*
X298493Y424487D01*
X298278Y424740D01*
X294679Y428339D01*
X293977Y430035D01*
X293972Y430042D01*
X293970Y430051D01*
X293878Y430219D01*
X293786Y430389D01*
X293781Y430396D01*
X293776Y430404D01*
X293653Y430551D01*
X293530Y430700D01*
X293523Y430705D01*
X293517Y430712D01*
X293367Y430832D01*
X293217Y430954D01*
X293209Y430958D01*
X293203Y430963D01*
X293032Y431051D01*
X292861Y431141D01*
X292852Y431143D01*
X292844Y431147D01*
X292661Y431199D01*
X292475Y431254D01*
X292465Y431254D01*
X292457Y431257D01*
X292266Y431272D01*
X292073Y431288D01*
X292064Y431287D01*
X292056Y431288D01*
X291865Y431265D01*
X291673Y431243D01*
X291665Y431240D01*
X291656Y431239D01*
X291473Y431179D01*
X291290Y431120D01*
X291282Y431116D01*
X291274Y431113D01*
X291106Y431017D01*
X290939Y430924D01*
X290932Y430918D01*
X290924Y430913D01*
X290779Y430787D01*
X290633Y430662D01*
X290627Y430655D01*
X290620Y430649D01*
X290503Y430496D01*
X290384Y430345D01*
X290380Y430337D01*
X290375Y430330D01*
X290223Y430035D01*
X289521Y428339D01*
X285922Y424740D01*
X285911Y424726D01*
X285897Y424715D01*
X285783Y424570D01*
X285667Y424429D01*
X285659Y424413D01*
X285647Y424399D01*
X285564Y424235D01*
X285478Y424073D01*
X285473Y424056D01*
X285465Y424040D01*
X285416Y423863D01*
X285363Y423687D01*
X285362Y423669D01*
X285357Y423652D01*
X285344Y423469D01*
X285327Y423286D01*
X285329Y423268D01*
X285328Y423250D01*
X285351Y423068D01*
X285370Y422886D01*
X285376Y422869D01*
X285378Y422851D01*
X285436Y422677D01*
X285492Y422502D01*
X285501Y422486D01*
X285506Y422469D01*
X285598Y422310D01*
X285687Y422150D01*
X285698Y422136D01*
X285707Y422120D01*
X285922Y421867D01*
X288014Y419776D01*
X289561Y416041D01*
X289561Y396759D01*
X288014Y393024D01*
X285156Y390166D01*
X281421Y388619D01*
X277379Y388619D01*
X273644Y390166D01*
X270786Y393024D01*
X269239Y396759D01*
X269239Y416041D01*
X270786Y419776D01*
X272878Y421867D01*
X272889Y421881D01*
X272903Y421893D01*
X273016Y422037D01*
X273133Y422179D01*
X273141Y422195D01*
X273153Y422209D01*
X273236Y422373D01*
X273322Y422535D01*
X273327Y422552D01*
X273335Y422568D01*
X273384Y422745D01*
X273437Y422921D01*
X273438Y422938D01*
X273443Y422956D01*
X273456Y423139D01*
X273473Y423322D01*
X273471Y423339D01*
X273472Y423357D01*
X273449Y423539D01*
X273430Y423722D01*
X273424Y423739D01*
X273422Y423757D01*
X273364Y423930D01*
X273308Y424106D01*
X273299Y424121D01*
X273294Y424138D01*
X273202Y424298D01*
X273113Y424458D01*
X273102Y424471D01*
X273093Y424487D01*
X272878Y424740D01*
X269279Y428339D01*
X268577Y430035D01*
X268572Y430042D01*
X268570Y430051D01*
X268478Y430219D01*
X268386Y430389D01*
X268381Y430396D01*
X268376Y430404D01*
X268253Y430551D01*
X268130Y430700D01*
X268123Y430705D01*
X268117Y430712D01*
X267967Y430832D01*
X267817Y430954D01*
X267809Y430958D01*
X267803Y430963D01*
X267632Y431051D01*
X267461Y431141D01*
X267452Y431143D01*
X267444Y431147D01*
X267261Y431199D01*
X267075Y431254D01*
X267065Y431254D01*
X267057Y431257D01*
X266866Y431272D01*
X266673Y431288D01*
X266664Y431287D01*
X266656Y431288D01*
X266465Y431265D01*
X266273Y431243D01*
X266265Y431240D01*
X266256Y431239D01*
X266073Y431179D01*
X265890Y431120D01*
X265882Y431116D01*
X265874Y431113D01*
X265706Y431017D01*
X265539Y430924D01*
X265532Y430918D01*
X265524Y430913D01*
X265379Y430787D01*
X265233Y430662D01*
X265227Y430655D01*
X265220Y430649D01*
X265103Y430496D01*
X264984Y430345D01*
X264980Y430337D01*
X264975Y430330D01*
X264823Y430035D01*
X264121Y428339D01*
X260522Y424740D01*
X260511Y424726D01*
X260497Y424715D01*
X260383Y424570D01*
X260267Y424429D01*
X260259Y424413D01*
X260247Y424399D01*
X260164Y424235D01*
X260078Y424073D01*
X260073Y424056D01*
X260065Y424040D01*
X260016Y423863D01*
X259963Y423687D01*
X259962Y423669D01*
X259957Y423652D01*
X259944Y423469D01*
X259927Y423286D01*
X259929Y423268D01*
X259928Y423250D01*
X259951Y423068D01*
X259970Y422886D01*
X259976Y422869D01*
X259978Y422851D01*
X260036Y422677D01*
X260092Y422502D01*
X260101Y422486D01*
X260106Y422469D01*
X260198Y422310D01*
X260287Y422150D01*
X260298Y422136D01*
X260307Y422120D01*
X260522Y421867D01*
X262614Y419776D01*
X264161Y416041D01*
X264161Y396759D01*
X262614Y393024D01*
X259756Y390166D01*
X256021Y388619D01*
X251979Y388619D01*
X248244Y390166D01*
X245386Y393024D01*
X243839Y396759D01*
X243839Y416041D01*
X245386Y419776D01*
X247478Y421867D01*
X247489Y421881D01*
X247503Y421893D01*
X247616Y422037D01*
X247733Y422179D01*
X247741Y422195D01*
X247753Y422209D01*
X247836Y422373D01*
X247922Y422535D01*
X247927Y422552D01*
X247935Y422568D01*
X247984Y422745D01*
X248037Y422921D01*
X248038Y422938D01*
X248043Y422956D01*
X248056Y423139D01*
X248073Y423322D01*
X248071Y423339D01*
X248072Y423357D01*
X248049Y423539D01*
X248030Y423722D01*
X248024Y423739D01*
X248022Y423757D01*
X247964Y423930D01*
X247908Y424106D01*
X247899Y424121D01*
X247894Y424138D01*
X247802Y424298D01*
X247713Y424458D01*
X247702Y424471D01*
X247693Y424487D01*
X247478Y424740D01*
X243879Y428339D01*
X242061Y432727D01*
X242061Y456273D01*
X243879Y460661D01*
X247237Y464019D01*
X251625Y465837D01*
X253529Y465837D01*
X253555Y465839D01*
X253582Y465837D01*
X253756Y465859D01*
X253929Y465877D01*
X253955Y465884D01*
X253981Y465888D01*
X254147Y465944D01*
X254314Y465995D01*
X254338Y466007D01*
X254363Y466016D01*
X254515Y466103D01*
X254668Y466187D01*
X254689Y466204D01*
X254712Y466217D01*
X254965Y466432D01*
X257405Y468872D01*
X257411Y468879D01*
X257417Y468884D01*
X257538Y469034D01*
X257660Y469183D01*
X257664Y469191D01*
X257670Y469198D01*
X257758Y469368D01*
X257849Y469539D01*
X257851Y469548D01*
X257855Y469555D01*
X257908Y469740D01*
X257963Y469925D01*
X257964Y469934D01*
X257967Y469942D01*
X257982Y470133D01*
X258000Y470326D01*
X257999Y470335D01*
X258000Y470344D01*
X257977Y470533D01*
X257956Y470726D01*
X257954Y470735D01*
X257953Y470743D01*
X257893Y470925D01*
X257835Y471110D01*
X257831Y471118D01*
X257828Y471126D01*
X257733Y471295D01*
X257640Y471462D01*
X257634Y471469D01*
X257630Y471477D01*
X257504Y471623D01*
X257380Y471769D01*
X257373Y471775D01*
X257367Y471782D01*
X257215Y471899D01*
X257064Y472019D01*
X257056Y472023D01*
X257049Y472028D01*
X256877Y472114D01*
X256705Y472201D01*
X256696Y472204D01*
X256688Y472208D01*
X256502Y472258D01*
X256317Y472309D01*
X256308Y472310D01*
X256299Y472312D01*
X255969Y472339D01*
X12192Y472339D01*
X12174Y472337D01*
X12156Y472339D01*
X11974Y472318D01*
X11791Y472299D01*
X11774Y472294D01*
X11757Y472292D01*
X11582Y472235D01*
X11406Y472181D01*
X11391Y472173D01*
X11374Y472167D01*
X11214Y472077D01*
X11052Y471989D01*
X11039Y471978D01*
X11023Y471969D01*
X10884Y471849D01*
X10743Y471732D01*
X10732Y471718D01*
X10718Y471706D01*
X10606Y471561D01*
X10491Y471418D01*
X10483Y471402D01*
X10472Y471388D01*
X10390Y471223D01*
X10305Y471061D01*
X10300Y471044D01*
X10292Y471028D01*
X10245Y470849D01*
X10194Y470674D01*
X10192Y470656D01*
X10188Y470639D01*
X10161Y470308D01*
X10161Y12192D01*
X10163Y12174D01*
X10161Y12156D01*
X10182Y11974D01*
X10201Y11791D01*
X10206Y11774D01*
X10208Y11757D01*
X10265Y11582D01*
X10319Y11406D01*
X10327Y11391D01*
X10333Y11374D01*
X10423Y11214D01*
X10511Y11052D01*
X10522Y11039D01*
X10531Y11023D01*
X10651Y10884D01*
X10768Y10743D01*
X10782Y10732D01*
X10794Y10718D01*
X10939Y10606D01*
X11082Y10491D01*
X11098Y10483D01*
X11112Y10472D01*
X11277Y10390D01*
X11439Y10305D01*
X11456Y10300D01*
X11472Y10292D01*
X11651Y10245D01*
X11826Y10194D01*
X11844Y10192D01*
X11861Y10188D01*
X12192Y10161D01*
X911108Y10161D01*
X911126Y10163D01*
G37*
%LPC*%
G36*
X201644Y93777D02*
X201644Y93777D01*
X198769Y94968D01*
X196568Y97169D01*
X195377Y100044D01*
X195377Y103156D01*
X196568Y106031D01*
X198769Y108232D01*
X201336Y109295D01*
X201363Y109310D01*
X201393Y109320D01*
X201541Y109405D01*
X201691Y109485D01*
X201715Y109505D01*
X201742Y109521D01*
X201995Y109735D01*
X202187Y109928D01*
X202193Y109935D01*
X202200Y109940D01*
X202320Y110090D01*
X202442Y110239D01*
X202446Y110247D01*
X202452Y110254D01*
X202541Y110425D01*
X202631Y110595D01*
X202633Y110603D01*
X202638Y110611D01*
X202691Y110797D01*
X202746Y110981D01*
X202746Y110990D01*
X202749Y110998D01*
X202765Y111189D01*
X202782Y111382D01*
X202781Y111391D01*
X202782Y111400D01*
X202760Y111589D01*
X202739Y111782D01*
X202736Y111791D01*
X202735Y111799D01*
X202676Y111981D01*
X202617Y112166D01*
X202613Y112174D01*
X202610Y112182D01*
X202516Y112350D01*
X202422Y112518D01*
X202417Y112525D01*
X202412Y112533D01*
X202286Y112679D01*
X202162Y112825D01*
X202155Y112831D01*
X202149Y112838D01*
X201998Y112955D01*
X201846Y113075D01*
X201838Y113079D01*
X201831Y113084D01*
X201659Y113170D01*
X201487Y113257D01*
X201479Y113260D01*
X201470Y113264D01*
X201284Y113314D01*
X201099Y113365D01*
X201090Y113366D01*
X201082Y113368D01*
X200751Y113395D01*
X154247Y113395D01*
X154216Y113392D01*
X154185Y113394D01*
X154016Y113372D01*
X153847Y113355D01*
X153817Y113346D01*
X153786Y113342D01*
X153470Y113241D01*
X151506Y112427D01*
X148494Y112427D01*
X145710Y113580D01*
X143580Y115710D01*
X142427Y118494D01*
X142427Y121506D01*
X143580Y124290D01*
X145710Y126420D01*
X148494Y127573D01*
X151506Y127573D01*
X153470Y126759D01*
X153500Y126750D01*
X153528Y126736D01*
X153692Y126692D01*
X153855Y126643D01*
X153886Y126640D01*
X153917Y126632D01*
X154247Y126605D01*
X207208Y126605D01*
X207216Y126606D01*
X207225Y126605D01*
X207417Y126626D01*
X207608Y126645D01*
X207617Y126647D01*
X207626Y126648D01*
X207808Y126706D01*
X207993Y126763D01*
X208001Y126767D01*
X208009Y126770D01*
X208178Y126863D01*
X208347Y126955D01*
X208354Y126960D01*
X208362Y126965D01*
X208509Y127089D01*
X208656Y127212D01*
X208662Y127219D01*
X208669Y127225D01*
X208788Y127376D01*
X208909Y127526D01*
X208913Y127534D01*
X208918Y127541D01*
X209006Y127714D01*
X209094Y127883D01*
X209097Y127892D01*
X209101Y127900D01*
X209153Y128086D01*
X209206Y128270D01*
X209206Y128279D01*
X209209Y128288D01*
X209223Y128481D01*
X209238Y128672D01*
X209237Y128680D01*
X209238Y128689D01*
X209214Y128882D01*
X209192Y129071D01*
X209189Y129080D01*
X209188Y129089D01*
X209126Y129271D01*
X209067Y129454D01*
X209062Y129462D01*
X209059Y129470D01*
X208963Y129637D01*
X208869Y129805D01*
X208863Y129812D01*
X208859Y129819D01*
X208644Y130072D01*
X205779Y132937D01*
X203961Y137325D01*
X203961Y142075D01*
X205779Y146463D01*
X209137Y149821D01*
X213525Y151639D01*
X218275Y151639D01*
X222663Y149821D01*
X226021Y146463D01*
X227839Y142075D01*
X227839Y137325D01*
X226021Y132937D01*
X223156Y130072D01*
X223150Y130065D01*
X223144Y130060D01*
X223023Y129910D01*
X222901Y129761D01*
X222897Y129753D01*
X222891Y129746D01*
X222803Y129576D01*
X222712Y129405D01*
X222710Y129396D01*
X222706Y129389D01*
X222653Y129204D01*
X222598Y129019D01*
X222597Y129010D01*
X222594Y129002D01*
X222579Y128811D01*
X222561Y128618D01*
X222562Y128609D01*
X222562Y128600D01*
X222584Y128411D01*
X222605Y128218D01*
X222607Y128209D01*
X222608Y128201D01*
X222668Y128019D01*
X222726Y127834D01*
X222731Y127826D01*
X222733Y127818D01*
X222828Y127649D01*
X222921Y127482D01*
X222927Y127475D01*
X222931Y127467D01*
X223057Y127321D01*
X223182Y127175D01*
X223189Y127169D01*
X223194Y127162D01*
X223346Y127045D01*
X223497Y126925D01*
X223505Y126921D01*
X223512Y126916D01*
X223685Y126830D01*
X223856Y126743D01*
X223865Y126740D01*
X223873Y126736D01*
X224059Y126686D01*
X224244Y126635D01*
X224253Y126634D01*
X224262Y126632D01*
X224592Y126605D01*
X245308Y126605D01*
X245316Y126606D01*
X245325Y126605D01*
X245517Y126626D01*
X245708Y126645D01*
X245717Y126647D01*
X245726Y126648D01*
X245908Y126706D01*
X246093Y126763D01*
X246101Y126767D01*
X246109Y126770D01*
X246278Y126863D01*
X246447Y126955D01*
X246454Y126960D01*
X246462Y126965D01*
X246609Y127089D01*
X246756Y127212D01*
X246762Y127219D01*
X246769Y127225D01*
X246888Y127376D01*
X247009Y127526D01*
X247013Y127534D01*
X247018Y127541D01*
X247106Y127714D01*
X247194Y127883D01*
X247197Y127892D01*
X247201Y127900D01*
X247253Y128086D01*
X247306Y128270D01*
X247306Y128279D01*
X247309Y128288D01*
X247323Y128481D01*
X247338Y128672D01*
X247337Y128680D01*
X247338Y128689D01*
X247314Y128882D01*
X247292Y129071D01*
X247289Y129080D01*
X247288Y129089D01*
X247226Y129271D01*
X247167Y129454D01*
X247162Y129462D01*
X247159Y129470D01*
X247063Y129637D01*
X246969Y129805D01*
X246963Y129812D01*
X246959Y129819D01*
X246744Y130072D01*
X243879Y132937D01*
X242061Y137325D01*
X242061Y142075D01*
X243879Y146463D01*
X247237Y149821D01*
X251625Y151639D01*
X256375Y151639D01*
X260763Y149821D01*
X264121Y146463D01*
X265939Y142075D01*
X265939Y137325D01*
X264121Y132937D01*
X261256Y130072D01*
X261250Y130065D01*
X261244Y130060D01*
X261123Y129910D01*
X261001Y129761D01*
X260997Y129753D01*
X260991Y129746D01*
X260903Y129576D01*
X260812Y129405D01*
X260810Y129396D01*
X260806Y129389D01*
X260753Y129204D01*
X260698Y129019D01*
X260697Y129010D01*
X260694Y129002D01*
X260679Y128811D01*
X260661Y128618D01*
X260662Y128609D01*
X260662Y128600D01*
X260684Y128411D01*
X260705Y128218D01*
X260707Y128209D01*
X260708Y128201D01*
X260768Y128019D01*
X260826Y127834D01*
X260831Y127826D01*
X260833Y127818D01*
X260928Y127649D01*
X261021Y127482D01*
X261027Y127475D01*
X261031Y127467D01*
X261157Y127321D01*
X261282Y127175D01*
X261289Y127169D01*
X261294Y127162D01*
X261446Y127045D01*
X261597Y126925D01*
X261605Y126921D01*
X261612Y126916D01*
X261785Y126830D01*
X261956Y126743D01*
X261965Y126740D01*
X261973Y126736D01*
X262159Y126686D01*
X262344Y126635D01*
X262353Y126634D01*
X262362Y126632D01*
X262692Y126605D01*
X283408Y126605D01*
X283416Y126606D01*
X283425Y126605D01*
X283617Y126626D01*
X283808Y126645D01*
X283817Y126647D01*
X283826Y126648D01*
X284008Y126706D01*
X284193Y126763D01*
X284201Y126767D01*
X284209Y126770D01*
X284378Y126863D01*
X284547Y126955D01*
X284554Y126960D01*
X284562Y126965D01*
X284709Y127089D01*
X284856Y127212D01*
X284862Y127219D01*
X284869Y127225D01*
X284988Y127376D01*
X285109Y127526D01*
X285113Y127534D01*
X285118Y127541D01*
X285206Y127714D01*
X285294Y127883D01*
X285297Y127892D01*
X285301Y127900D01*
X285353Y128086D01*
X285406Y128270D01*
X285406Y128279D01*
X285409Y128288D01*
X285423Y128481D01*
X285438Y128672D01*
X285437Y128680D01*
X285438Y128689D01*
X285414Y128882D01*
X285392Y129071D01*
X285389Y129080D01*
X285388Y129089D01*
X285326Y129271D01*
X285267Y129454D01*
X285262Y129462D01*
X285259Y129470D01*
X285163Y129637D01*
X285069Y129805D01*
X285063Y129812D01*
X285059Y129819D01*
X284844Y130072D01*
X281979Y132937D01*
X280161Y137325D01*
X280161Y142075D01*
X281979Y146463D01*
X285337Y149821D01*
X289725Y151639D01*
X294475Y151639D01*
X298863Y149821D01*
X302221Y146463D01*
X304039Y142075D01*
X304039Y137325D01*
X302221Y132937D01*
X299356Y130072D01*
X299350Y130065D01*
X299344Y130060D01*
X299223Y129910D01*
X299101Y129761D01*
X299097Y129753D01*
X299091Y129746D01*
X299003Y129576D01*
X298912Y129405D01*
X298910Y129396D01*
X298906Y129389D01*
X298853Y129204D01*
X298798Y129019D01*
X298797Y129010D01*
X298794Y129002D01*
X298779Y128811D01*
X298761Y128618D01*
X298762Y128609D01*
X298762Y128600D01*
X298784Y128411D01*
X298805Y128218D01*
X298807Y128209D01*
X298808Y128201D01*
X298868Y128019D01*
X298926Y127834D01*
X298931Y127826D01*
X298933Y127818D01*
X299028Y127649D01*
X299121Y127482D01*
X299127Y127475D01*
X299131Y127467D01*
X299257Y127321D01*
X299382Y127175D01*
X299389Y127169D01*
X299394Y127162D01*
X299546Y127045D01*
X299697Y126925D01*
X299705Y126921D01*
X299712Y126916D01*
X299885Y126830D01*
X300056Y126743D01*
X300065Y126740D01*
X300073Y126736D01*
X300259Y126686D01*
X300444Y126635D01*
X300453Y126634D01*
X300462Y126632D01*
X300792Y126605D01*
X321508Y126605D01*
X321516Y126606D01*
X321525Y126605D01*
X321717Y126626D01*
X321908Y126645D01*
X321917Y126647D01*
X321926Y126648D01*
X322108Y126706D01*
X322293Y126763D01*
X322301Y126767D01*
X322309Y126770D01*
X322478Y126863D01*
X322647Y126955D01*
X322654Y126960D01*
X322662Y126965D01*
X322809Y127089D01*
X322956Y127212D01*
X322962Y127219D01*
X322969Y127225D01*
X323088Y127376D01*
X323209Y127526D01*
X323213Y127534D01*
X323218Y127541D01*
X323306Y127714D01*
X323394Y127883D01*
X323397Y127892D01*
X323401Y127900D01*
X323453Y128086D01*
X323506Y128270D01*
X323506Y128279D01*
X323509Y128288D01*
X323523Y128481D01*
X323538Y128672D01*
X323537Y128680D01*
X323538Y128689D01*
X323514Y128882D01*
X323492Y129071D01*
X323489Y129080D01*
X323488Y129089D01*
X323426Y129271D01*
X323367Y129454D01*
X323362Y129462D01*
X323359Y129470D01*
X323263Y129637D01*
X323169Y129805D01*
X323163Y129812D01*
X323159Y129819D01*
X322944Y130072D01*
X320079Y132937D01*
X318261Y137325D01*
X318261Y142075D01*
X320079Y146463D01*
X323437Y149821D01*
X327825Y151639D01*
X332575Y151639D01*
X336963Y149821D01*
X340321Y146463D01*
X342139Y142075D01*
X342139Y137325D01*
X340321Y132937D01*
X337456Y130072D01*
X337450Y130065D01*
X337444Y130060D01*
X337323Y129910D01*
X337201Y129761D01*
X337197Y129753D01*
X337191Y129746D01*
X337103Y129576D01*
X337012Y129405D01*
X337010Y129396D01*
X337006Y129389D01*
X336953Y129204D01*
X336898Y129019D01*
X336897Y129010D01*
X336894Y129002D01*
X336879Y128811D01*
X336861Y128618D01*
X336862Y128609D01*
X336862Y128600D01*
X336884Y128411D01*
X336905Y128218D01*
X336907Y128209D01*
X336908Y128201D01*
X336968Y128019D01*
X337026Y127834D01*
X337031Y127826D01*
X337033Y127818D01*
X337128Y127649D01*
X337221Y127482D01*
X337227Y127475D01*
X337231Y127467D01*
X337357Y127321D01*
X337482Y127175D01*
X337489Y127169D01*
X337494Y127162D01*
X337646Y127045D01*
X337797Y126925D01*
X337805Y126921D01*
X337812Y126916D01*
X337985Y126830D01*
X338156Y126743D01*
X338165Y126740D01*
X338173Y126736D01*
X338359Y126686D01*
X338544Y126635D01*
X338553Y126634D01*
X338562Y126632D01*
X338892Y126605D01*
X370753Y126605D01*
X370784Y126608D01*
X370815Y126606D01*
X370984Y126628D01*
X371153Y126645D01*
X371183Y126654D01*
X371214Y126658D01*
X371530Y126759D01*
X373494Y127573D01*
X376506Y127573D01*
X379290Y126420D01*
X381420Y124290D01*
X382573Y121506D01*
X382573Y118494D01*
X381420Y115710D01*
X379290Y113580D01*
X376506Y112427D01*
X373494Y112427D01*
X371530Y113241D01*
X371500Y113250D01*
X371472Y113264D01*
X371308Y113308D01*
X371145Y113357D01*
X371114Y113360D01*
X371083Y113368D01*
X370753Y113395D01*
X332649Y113395D01*
X332640Y113394D01*
X332631Y113395D01*
X332438Y113374D01*
X332248Y113355D01*
X332240Y113353D01*
X332231Y113352D01*
X332047Y113293D01*
X331864Y113237D01*
X331856Y113233D01*
X331847Y113230D01*
X331679Y113137D01*
X331510Y113045D01*
X331503Y113040D01*
X331495Y113035D01*
X331348Y112911D01*
X331200Y112788D01*
X331195Y112781D01*
X331188Y112775D01*
X331068Y112623D01*
X330948Y112474D01*
X330944Y112466D01*
X330938Y112459D01*
X330850Y112285D01*
X330762Y112117D01*
X330760Y112108D01*
X330756Y112100D01*
X330704Y111914D01*
X330651Y111730D01*
X330650Y111721D01*
X330648Y111712D01*
X330634Y111519D01*
X330618Y111328D01*
X330619Y111320D01*
X330619Y111311D01*
X330643Y111118D01*
X330665Y110929D01*
X330668Y110920D01*
X330669Y110911D01*
X330731Y110728D01*
X330790Y110546D01*
X330794Y110538D01*
X330797Y110530D01*
X330893Y110363D01*
X330988Y110195D01*
X330994Y110188D01*
X330998Y110181D01*
X331213Y109928D01*
X331405Y109735D01*
X331429Y109716D01*
X331450Y109692D01*
X331585Y109588D01*
X331716Y109480D01*
X331744Y109466D01*
X331769Y109447D01*
X332064Y109295D01*
X334631Y108232D01*
X336832Y106031D01*
X338023Y103156D01*
X338023Y100044D01*
X336832Y97169D01*
X334631Y94968D01*
X331756Y93777D01*
X328644Y93777D01*
X325769Y94968D01*
X323568Y97169D01*
X322917Y98741D01*
X322906Y98761D01*
X322899Y98782D01*
X322811Y98939D01*
X322727Y99096D01*
X322712Y99113D01*
X322701Y99133D01*
X322584Y99269D01*
X322470Y99407D01*
X322453Y99421D01*
X322438Y99438D01*
X322297Y99547D01*
X322158Y99660D01*
X322138Y99671D01*
X322120Y99684D01*
X321960Y99764D01*
X321801Y99847D01*
X321780Y99854D01*
X321760Y99864D01*
X321587Y99910D01*
X321415Y99960D01*
X321392Y99962D01*
X321371Y99968D01*
X321040Y99995D01*
X212360Y99995D01*
X212338Y99993D01*
X212315Y99995D01*
X212137Y99973D01*
X211959Y99955D01*
X211938Y99949D01*
X211916Y99946D01*
X211745Y99890D01*
X211574Y99837D01*
X211555Y99827D01*
X211533Y99820D01*
X211377Y99731D01*
X211220Y99645D01*
X211203Y99631D01*
X211184Y99620D01*
X211048Y99502D01*
X210911Y99388D01*
X210897Y99370D01*
X210880Y99356D01*
X210771Y99213D01*
X210659Y99074D01*
X210648Y99054D01*
X210635Y99037D01*
X210483Y98741D01*
X209832Y97169D01*
X207631Y94968D01*
X204756Y93777D01*
X201644Y93777D01*
G37*
%LPD*%
%LPC*%
G36*
X802178Y311231D02*
X802178Y311231D01*
X798257Y312855D01*
X795255Y315857D01*
X793631Y319778D01*
X793631Y324022D01*
X795255Y327943D01*
X798257Y330944D01*
X798473Y331034D01*
X798493Y331045D01*
X798514Y331052D01*
X798670Y331140D01*
X798828Y331224D01*
X798845Y331239D01*
X798865Y331250D01*
X799001Y331367D01*
X799139Y331481D01*
X799153Y331498D01*
X799170Y331513D01*
X799279Y331654D01*
X799392Y331793D01*
X799403Y331813D01*
X799416Y331831D01*
X799496Y331991D01*
X799579Y332150D01*
X799586Y332171D01*
X799596Y332191D01*
X799642Y332365D01*
X799692Y332536D01*
X799694Y332559D01*
X799700Y332580D01*
X799727Y332911D01*
X799727Y339165D01*
X799725Y339191D01*
X799727Y339218D01*
X799705Y339392D01*
X799687Y339565D01*
X799680Y339591D01*
X799676Y339617D01*
X799621Y339783D01*
X799569Y339950D01*
X799556Y339974D01*
X799548Y339999D01*
X799461Y340151D01*
X799377Y340304D01*
X799360Y340325D01*
X799347Y340348D01*
X799132Y340601D01*
X781601Y358132D01*
X781580Y358149D01*
X781563Y358170D01*
X781425Y358277D01*
X781289Y358387D01*
X781266Y358400D01*
X781245Y358416D01*
X781088Y358494D01*
X780934Y358576D01*
X780908Y358584D01*
X780884Y358596D01*
X780715Y358641D01*
X780548Y358691D01*
X780521Y358693D01*
X780495Y358700D01*
X780165Y358727D01*
X338353Y358727D01*
X338326Y358725D01*
X338299Y358727D01*
X338125Y358705D01*
X337952Y358687D01*
X337926Y358680D01*
X337900Y358676D01*
X337734Y358621D01*
X337567Y358569D01*
X337543Y358556D01*
X337518Y358548D01*
X337366Y358461D01*
X337213Y358377D01*
X337193Y358360D01*
X337169Y358347D01*
X336979Y358186D01*
X332575Y356361D01*
X327825Y356361D01*
X323437Y358179D01*
X320079Y361537D01*
X319377Y363233D01*
X319372Y363240D01*
X319370Y363249D01*
X319277Y363419D01*
X319186Y363587D01*
X319181Y363594D01*
X319176Y363602D01*
X319052Y363751D01*
X318930Y363898D01*
X318923Y363903D01*
X318917Y363910D01*
X318766Y364031D01*
X318617Y364152D01*
X318610Y364156D01*
X318602Y364161D01*
X318430Y364250D01*
X318261Y364339D01*
X318252Y364341D01*
X318244Y364345D01*
X318060Y364397D01*
X317874Y364452D01*
X317865Y364452D01*
X317857Y364455D01*
X317666Y364470D01*
X317473Y364486D01*
X317464Y364485D01*
X317456Y364486D01*
X317264Y364463D01*
X317073Y364441D01*
X317065Y364438D01*
X317056Y364437D01*
X316874Y364377D01*
X316690Y364318D01*
X316682Y364314D01*
X316674Y364311D01*
X316508Y364216D01*
X316338Y364122D01*
X316332Y364116D01*
X316324Y364111D01*
X316180Y363986D01*
X316033Y363860D01*
X316027Y363853D01*
X316020Y363847D01*
X315903Y363695D01*
X315784Y363543D01*
X315780Y363535D01*
X315775Y363528D01*
X315623Y363233D01*
X314921Y361537D01*
X311563Y358179D01*
X307175Y356361D01*
X302425Y356361D01*
X298037Y358179D01*
X294679Y361537D01*
X293977Y363233D01*
X293972Y363240D01*
X293970Y363249D01*
X293878Y363417D01*
X293786Y363587D01*
X293781Y363594D01*
X293776Y363602D01*
X293653Y363749D01*
X293530Y363898D01*
X293523Y363903D01*
X293517Y363910D01*
X293367Y364030D01*
X293217Y364152D01*
X293209Y364156D01*
X293203Y364161D01*
X293032Y364249D01*
X292861Y364339D01*
X292852Y364341D01*
X292844Y364345D01*
X292661Y364397D01*
X292475Y364452D01*
X292465Y364452D01*
X292457Y364455D01*
X292266Y364470D01*
X292073Y364486D01*
X292064Y364485D01*
X292056Y364486D01*
X291865Y364463D01*
X291673Y364441D01*
X291665Y364438D01*
X291656Y364437D01*
X291473Y364377D01*
X291290Y364318D01*
X291282Y364314D01*
X291274Y364311D01*
X291106Y364215D01*
X290939Y364122D01*
X290932Y364116D01*
X290924Y364111D01*
X290779Y363985D01*
X290633Y363860D01*
X290627Y363853D01*
X290620Y363847D01*
X290503Y363694D01*
X290384Y363543D01*
X290380Y363535D01*
X290375Y363528D01*
X290223Y363233D01*
X289521Y361537D01*
X286163Y358179D01*
X281775Y356361D01*
X277025Y356361D01*
X272637Y358179D01*
X269279Y361537D01*
X268577Y363233D01*
X268572Y363240D01*
X268570Y363249D01*
X268477Y363419D01*
X268386Y363587D01*
X268381Y363594D01*
X268376Y363602D01*
X268252Y363751D01*
X268130Y363898D01*
X268123Y363903D01*
X268117Y363910D01*
X267966Y364031D01*
X267817Y364152D01*
X267810Y364156D01*
X267802Y364161D01*
X267630Y364250D01*
X267461Y364339D01*
X267452Y364341D01*
X267444Y364345D01*
X267260Y364397D01*
X267074Y364452D01*
X267065Y364452D01*
X267057Y364455D01*
X266866Y364470D01*
X266673Y364486D01*
X266664Y364485D01*
X266656Y364486D01*
X266464Y364463D01*
X266273Y364441D01*
X266265Y364438D01*
X266256Y364437D01*
X266074Y364377D01*
X265890Y364318D01*
X265882Y364314D01*
X265874Y364311D01*
X265708Y364216D01*
X265538Y364122D01*
X265532Y364116D01*
X265524Y364111D01*
X265380Y363986D01*
X265233Y363860D01*
X265227Y363853D01*
X265220Y363847D01*
X265103Y363695D01*
X264984Y363543D01*
X264980Y363535D01*
X264975Y363528D01*
X264823Y363233D01*
X264121Y361537D01*
X260763Y358179D01*
X256375Y356361D01*
X251625Y356361D01*
X247237Y358179D01*
X243879Y361537D01*
X242061Y365925D01*
X242061Y370675D01*
X243879Y375063D01*
X247237Y378421D01*
X251625Y380239D01*
X256375Y380239D01*
X260763Y378421D01*
X264121Y375063D01*
X264823Y373367D01*
X264828Y373360D01*
X264830Y373351D01*
X264922Y373183D01*
X265014Y373013D01*
X265019Y373006D01*
X265024Y372998D01*
X265147Y372851D01*
X265270Y372702D01*
X265277Y372697D01*
X265283Y372690D01*
X265433Y372570D01*
X265583Y372448D01*
X265591Y372444D01*
X265597Y372439D01*
X265768Y372351D01*
X265939Y372261D01*
X265948Y372259D01*
X265956Y372255D01*
X266139Y372203D01*
X266325Y372148D01*
X266335Y372148D01*
X266343Y372145D01*
X266534Y372130D01*
X266727Y372114D01*
X266736Y372115D01*
X266744Y372114D01*
X266935Y372137D01*
X267127Y372159D01*
X267135Y372162D01*
X267144Y372163D01*
X267327Y372223D01*
X267510Y372282D01*
X267518Y372286D01*
X267526Y372289D01*
X267694Y372385D01*
X267861Y372478D01*
X267868Y372484D01*
X267876Y372489D01*
X268021Y372615D01*
X268167Y372740D01*
X268173Y372747D01*
X268180Y372753D01*
X268297Y372906D01*
X268416Y373057D01*
X268420Y373065D01*
X268425Y373072D01*
X268577Y373367D01*
X269279Y375063D01*
X272637Y378421D01*
X277025Y380239D01*
X281775Y380239D01*
X286163Y378421D01*
X289521Y375063D01*
X290223Y373367D01*
X290228Y373360D01*
X290230Y373351D01*
X290323Y373181D01*
X290414Y373013D01*
X290419Y373006D01*
X290424Y372998D01*
X290548Y372849D01*
X290670Y372702D01*
X290677Y372697D01*
X290683Y372690D01*
X290834Y372569D01*
X290983Y372448D01*
X290990Y372444D01*
X290998Y372439D01*
X291170Y372350D01*
X291339Y372261D01*
X291348Y372259D01*
X291356Y372255D01*
X291540Y372203D01*
X291726Y372148D01*
X291735Y372148D01*
X291743Y372145D01*
X291934Y372130D01*
X292127Y372114D01*
X292136Y372115D01*
X292144Y372114D01*
X292336Y372137D01*
X292527Y372159D01*
X292535Y372162D01*
X292544Y372163D01*
X292726Y372223D01*
X292910Y372282D01*
X292918Y372286D01*
X292926Y372289D01*
X293092Y372384D01*
X293262Y372478D01*
X293268Y372484D01*
X293276Y372489D01*
X293420Y372614D01*
X293567Y372740D01*
X293573Y372747D01*
X293580Y372753D01*
X293697Y372905D01*
X293816Y373057D01*
X293820Y373065D01*
X293825Y373072D01*
X293977Y373367D01*
X294679Y375063D01*
X298037Y378421D01*
X302425Y380239D01*
X307175Y380239D01*
X311563Y378421D01*
X314921Y375063D01*
X315623Y373367D01*
X315628Y373360D01*
X315630Y373351D01*
X315722Y373183D01*
X315814Y373013D01*
X315819Y373006D01*
X315824Y372998D01*
X315947Y372851D01*
X316070Y372702D01*
X316077Y372697D01*
X316083Y372690D01*
X316233Y372570D01*
X316383Y372448D01*
X316391Y372444D01*
X316397Y372439D01*
X316568Y372351D01*
X316739Y372261D01*
X316748Y372259D01*
X316756Y372255D01*
X316939Y372203D01*
X317125Y372148D01*
X317135Y372148D01*
X317143Y372145D01*
X317334Y372130D01*
X317527Y372114D01*
X317536Y372115D01*
X317544Y372114D01*
X317735Y372137D01*
X317927Y372159D01*
X317935Y372162D01*
X317944Y372163D01*
X318127Y372223D01*
X318310Y372282D01*
X318318Y372286D01*
X318326Y372289D01*
X318494Y372385D01*
X318661Y372478D01*
X318668Y372484D01*
X318676Y372489D01*
X318821Y372615D01*
X318967Y372740D01*
X318973Y372747D01*
X318980Y372753D01*
X319097Y372906D01*
X319216Y373057D01*
X319220Y373065D01*
X319225Y373072D01*
X319377Y373367D01*
X320079Y375063D01*
X323437Y378421D01*
X327825Y380239D01*
X332575Y380239D01*
X336963Y378421D01*
X340321Y375063D01*
X342139Y370675D01*
X342139Y369904D01*
X342141Y369886D01*
X342139Y369868D01*
X342160Y369686D01*
X342179Y369503D01*
X342184Y369486D01*
X342186Y369469D01*
X342243Y369294D01*
X342297Y369118D01*
X342305Y369103D01*
X342311Y369086D01*
X342401Y368926D01*
X342489Y368764D01*
X342500Y368751D01*
X342509Y368735D01*
X342629Y368596D01*
X342746Y368455D01*
X342760Y368444D01*
X342772Y368430D01*
X342917Y368318D01*
X343060Y368203D01*
X343076Y368195D01*
X343090Y368184D01*
X343255Y368102D01*
X343417Y368017D01*
X343434Y368012D01*
X343450Y368004D01*
X343629Y367957D01*
X343804Y367906D01*
X343822Y367904D01*
X343839Y367900D01*
X344170Y367873D01*
X783810Y367873D01*
X785490Y367177D01*
X787062Y365605D01*
X806605Y346062D01*
X808177Y344490D01*
X808873Y342810D01*
X808873Y332911D01*
X808875Y332889D01*
X808873Y332866D01*
X808895Y332689D01*
X808913Y332510D01*
X808919Y332489D01*
X808922Y332467D01*
X808978Y332297D01*
X809031Y332125D01*
X809041Y332106D01*
X809048Y332085D01*
X809137Y331929D01*
X809223Y331771D01*
X809237Y331754D01*
X809248Y331735D01*
X809365Y331600D01*
X809480Y331462D01*
X809498Y331448D01*
X809512Y331431D01*
X809654Y331322D01*
X809794Y331210D01*
X809814Y331199D01*
X809832Y331186D01*
X810127Y331034D01*
X810343Y330944D01*
X813345Y327943D01*
X814969Y324022D01*
X814969Y319778D01*
X813345Y315857D01*
X810343Y312855D01*
X806422Y311231D01*
X802178Y311231D01*
G37*
%LPD*%
%LPC*%
G36*
X277025Y237061D02*
X277025Y237061D01*
X272637Y238879D01*
X269279Y242237D01*
X268577Y243932D01*
X268515Y244047D01*
X268462Y244166D01*
X268420Y244224D01*
X268387Y244287D01*
X268303Y244387D01*
X268227Y244494D01*
X268176Y244542D01*
X268130Y244597D01*
X268029Y244679D01*
X267933Y244769D01*
X267873Y244806D01*
X267818Y244851D01*
X267702Y244911D01*
X267591Y244980D01*
X267524Y245005D01*
X267461Y245038D01*
X267336Y245074D01*
X267213Y245120D01*
X267143Y245131D01*
X267075Y245151D01*
X266945Y245162D01*
X266815Y245182D01*
X266744Y245179D01*
X266674Y245185D01*
X266544Y245171D01*
X266413Y245165D01*
X266344Y245148D01*
X266274Y245140D01*
X266149Y245100D01*
X266022Y245069D01*
X265958Y245039D01*
X265890Y245017D01*
X265776Y244953D01*
X265658Y244898D01*
X265601Y244855D01*
X265539Y244821D01*
X265440Y244736D01*
X265334Y244658D01*
X265287Y244605D01*
X265233Y244559D01*
X265152Y244456D01*
X265065Y244359D01*
X265022Y244289D01*
X264985Y244242D01*
X264951Y244174D01*
X264890Y244076D01*
X264211Y242743D01*
X263106Y241222D01*
X261778Y239894D01*
X260257Y238789D01*
X258583Y237936D01*
X256796Y237355D01*
X256031Y237234D01*
X256031Y249000D01*
X256030Y249017D01*
X256031Y249035D01*
X256010Y249218D01*
X255991Y249400D01*
X255986Y249417D01*
X255984Y249435D01*
X255927Y249610D01*
X255873Y249785D01*
X255865Y249801D01*
X255859Y249818D01*
X255769Y249978D01*
X255682Y250139D01*
X255670Y250153D01*
X255661Y250168D01*
X255541Y250308D01*
X255424Y250448D01*
X255424Y250449D01*
X255423Y250449D01*
X255410Y250460D01*
X255398Y250473D01*
X255398Y250474D01*
X255253Y250586D01*
X255110Y250701D01*
X255094Y250710D01*
X255080Y250720D01*
X254915Y250802D01*
X254752Y250887D01*
X254735Y250892D01*
X254719Y250900D01*
X254541Y250948D01*
X254365Y250998D01*
X254348Y251000D01*
X254330Y251004D01*
X254000Y251031D01*
X242234Y251031D01*
X242355Y251796D01*
X242936Y253583D01*
X243789Y255257D01*
X244894Y256778D01*
X246222Y258106D01*
X247743Y259211D01*
X249417Y260064D01*
X251204Y260645D01*
X253060Y260939D01*
X253683Y260939D01*
X253697Y260940D01*
X253710Y260939D01*
X253896Y260960D01*
X254084Y260979D01*
X254097Y260983D01*
X254110Y260984D01*
X254288Y261041D01*
X254469Y261097D01*
X254481Y261103D01*
X254493Y261107D01*
X254658Y261199D01*
X254823Y261289D01*
X254833Y261297D01*
X254845Y261304D01*
X254989Y261427D01*
X255132Y261546D01*
X255140Y261557D01*
X255151Y261565D01*
X255267Y261714D01*
X255384Y261860D01*
X255391Y261872D01*
X255399Y261882D01*
X255484Y262052D01*
X255570Y262217D01*
X255574Y262230D01*
X255580Y262242D01*
X255629Y262424D01*
X255681Y262604D01*
X255682Y262618D01*
X255686Y262631D01*
X255699Y262817D01*
X255714Y263006D01*
X255713Y263019D01*
X255714Y263032D01*
X255689Y263219D01*
X255667Y263405D01*
X255663Y263418D01*
X255661Y263431D01*
X255560Y263747D01*
X254761Y265675D01*
X254761Y270425D01*
X256579Y274813D01*
X258633Y276867D01*
X258636Y276870D01*
X258639Y276873D01*
X258762Y277024D01*
X258888Y277178D01*
X258890Y277182D01*
X258893Y277186D01*
X258984Y277360D01*
X259077Y277534D01*
X259078Y277538D01*
X259080Y277542D01*
X259135Y277731D01*
X259191Y277920D01*
X259192Y277924D01*
X259193Y277929D01*
X259209Y278120D01*
X259228Y278321D01*
X259227Y278326D01*
X259228Y278330D01*
X259206Y278520D01*
X259184Y278721D01*
X259183Y278726D01*
X259182Y278730D01*
X259123Y278913D01*
X259063Y279105D01*
X259061Y279109D01*
X259059Y279113D01*
X258963Y279286D01*
X258868Y279457D01*
X258865Y279461D01*
X258863Y279465D01*
X258735Y279615D01*
X258608Y279764D01*
X258604Y279767D01*
X258601Y279771D01*
X258449Y279890D01*
X258292Y280014D01*
X258287Y280016D01*
X258284Y280019D01*
X258110Y280106D01*
X257933Y280196D01*
X257928Y280197D01*
X257924Y280200D01*
X257735Y280251D01*
X257545Y280304D01*
X257540Y280305D01*
X257536Y280306D01*
X257342Y280319D01*
X257143Y280334D01*
X257139Y280333D01*
X257134Y280333D01*
X256941Y280308D01*
X256744Y280283D01*
X256740Y280282D01*
X256735Y280281D01*
X256419Y280180D01*
X256375Y280161D01*
X251625Y280161D01*
X247237Y281979D01*
X243879Y285337D01*
X242061Y289725D01*
X242061Y294475D01*
X243879Y298863D01*
X247237Y302221D01*
X251625Y304039D01*
X256375Y304039D01*
X260763Y302221D01*
X264121Y298863D01*
X264823Y297167D01*
X264828Y297160D01*
X264830Y297151D01*
X264922Y296983D01*
X265014Y296813D01*
X265019Y296806D01*
X265024Y296798D01*
X265147Y296651D01*
X265270Y296502D01*
X265277Y296497D01*
X265283Y296490D01*
X265433Y296370D01*
X265583Y296248D01*
X265591Y296244D01*
X265597Y296239D01*
X265768Y296151D01*
X265939Y296061D01*
X265948Y296059D01*
X265956Y296055D01*
X266139Y296003D01*
X266325Y295948D01*
X266335Y295948D01*
X266343Y295945D01*
X266534Y295930D01*
X266727Y295914D01*
X266736Y295915D01*
X266744Y295914D01*
X266935Y295937D01*
X267127Y295959D01*
X267135Y295962D01*
X267144Y295963D01*
X267327Y296023D01*
X267510Y296082D01*
X267518Y296086D01*
X267526Y296089D01*
X267694Y296185D01*
X267861Y296278D01*
X267868Y296284D01*
X267876Y296289D01*
X268021Y296415D01*
X268167Y296540D01*
X268173Y296547D01*
X268180Y296553D01*
X268297Y296706D01*
X268416Y296857D01*
X268420Y296865D01*
X268425Y296872D01*
X268577Y297167D01*
X269279Y298863D01*
X272637Y302221D01*
X277025Y304039D01*
X281775Y304039D01*
X286163Y302221D01*
X289521Y298863D01*
X290223Y297167D01*
X290228Y297160D01*
X290230Y297151D01*
X290323Y296981D01*
X290414Y296813D01*
X290419Y296806D01*
X290424Y296798D01*
X290548Y296649D01*
X290670Y296502D01*
X290677Y296497D01*
X290683Y296490D01*
X290834Y296369D01*
X290983Y296248D01*
X290990Y296244D01*
X290998Y296239D01*
X291170Y296150D01*
X291339Y296061D01*
X291348Y296059D01*
X291356Y296055D01*
X291540Y296003D01*
X291726Y295948D01*
X291735Y295948D01*
X291743Y295945D01*
X291934Y295930D01*
X292127Y295914D01*
X292136Y295915D01*
X292144Y295914D01*
X292336Y295937D01*
X292527Y295959D01*
X292535Y295962D01*
X292544Y295963D01*
X292726Y296023D01*
X292910Y296082D01*
X292918Y296086D01*
X292926Y296089D01*
X293092Y296184D01*
X293262Y296278D01*
X293268Y296284D01*
X293276Y296289D01*
X293420Y296414D01*
X293567Y296540D01*
X293573Y296547D01*
X293580Y296553D01*
X293697Y296705D01*
X293816Y296857D01*
X293820Y296865D01*
X293825Y296872D01*
X293977Y297167D01*
X294679Y298863D01*
X298037Y302221D01*
X302425Y304039D01*
X307175Y304039D01*
X311563Y302221D01*
X314921Y298863D01*
X315623Y297167D01*
X315628Y297160D01*
X315630Y297151D01*
X315722Y296983D01*
X315814Y296813D01*
X315819Y296806D01*
X315824Y296798D01*
X315947Y296651D01*
X316070Y296502D01*
X316077Y296497D01*
X316083Y296490D01*
X316233Y296370D01*
X316383Y296248D01*
X316391Y296244D01*
X316397Y296239D01*
X316568Y296151D01*
X316739Y296061D01*
X316748Y296059D01*
X316756Y296055D01*
X316939Y296003D01*
X317125Y295948D01*
X317135Y295948D01*
X317143Y295945D01*
X317334Y295930D01*
X317527Y295914D01*
X317536Y295915D01*
X317544Y295914D01*
X317735Y295937D01*
X317927Y295959D01*
X317935Y295962D01*
X317944Y295963D01*
X318127Y296023D01*
X318310Y296082D01*
X318318Y296086D01*
X318326Y296089D01*
X318494Y296185D01*
X318661Y296278D01*
X318668Y296284D01*
X318676Y296289D01*
X318821Y296415D01*
X318967Y296540D01*
X318973Y296547D01*
X318980Y296553D01*
X319097Y296706D01*
X319216Y296857D01*
X319220Y296865D01*
X319225Y296872D01*
X319377Y297167D01*
X320079Y298863D01*
X323437Y302221D01*
X327825Y304039D01*
X332575Y304039D01*
X336963Y302221D01*
X340321Y298863D01*
X342139Y294475D01*
X342139Y289725D01*
X340321Y285337D01*
X336963Y281979D01*
X336897Y281952D01*
X336889Y281947D01*
X336881Y281945D01*
X336712Y281853D01*
X336542Y281761D01*
X336535Y281756D01*
X336527Y281751D01*
X336381Y281628D01*
X336232Y281505D01*
X336226Y281498D01*
X336219Y281492D01*
X336100Y281342D01*
X335978Y281192D01*
X335974Y281184D01*
X335968Y281177D01*
X335881Y281007D01*
X335791Y280836D01*
X335788Y280827D01*
X335784Y280819D01*
X335732Y280633D01*
X335678Y280449D01*
X335677Y280441D01*
X335675Y280432D01*
X335660Y280239D01*
X335643Y280048D01*
X335644Y280039D01*
X335644Y280030D01*
X335667Y279839D01*
X335688Y279648D01*
X335691Y279640D01*
X335692Y279631D01*
X335753Y279447D01*
X335812Y279265D01*
X335816Y279257D01*
X335819Y279249D01*
X335915Y279081D01*
X336008Y278913D01*
X336014Y278907D01*
X336018Y278899D01*
X336144Y278754D01*
X336270Y278608D01*
X336277Y278602D01*
X336283Y278595D01*
X336435Y278478D01*
X336587Y278359D01*
X336595Y278355D01*
X336602Y278350D01*
X336897Y278198D01*
X336963Y278171D01*
X340321Y274813D01*
X342139Y270425D01*
X342139Y265675D01*
X341340Y263747D01*
X341336Y263734D01*
X341330Y263723D01*
X341278Y263542D01*
X341224Y263362D01*
X341222Y263349D01*
X341219Y263336D01*
X341203Y263147D01*
X341186Y262961D01*
X341187Y262948D01*
X341186Y262934D01*
X341208Y262748D01*
X341227Y262561D01*
X341231Y262548D01*
X341233Y262535D01*
X341291Y262357D01*
X341347Y262176D01*
X341353Y262164D01*
X341358Y262152D01*
X341450Y261988D01*
X341540Y261823D01*
X341549Y261813D01*
X341555Y261801D01*
X341678Y261659D01*
X341799Y261515D01*
X341810Y261507D01*
X341819Y261496D01*
X341966Y261382D01*
X342114Y261264D01*
X342126Y261258D01*
X342137Y261250D01*
X342304Y261166D01*
X342472Y261080D01*
X342485Y261076D01*
X342497Y261070D01*
X342680Y261021D01*
X342860Y260970D01*
X342873Y260969D01*
X342886Y260966D01*
X343217Y260939D01*
X345275Y260939D01*
X349663Y259121D01*
X353021Y255763D01*
X354839Y251375D01*
X354839Y246625D01*
X353021Y242237D01*
X349663Y238879D01*
X345275Y237061D01*
X340525Y237061D01*
X336137Y238879D01*
X332779Y242237D01*
X332077Y243932D01*
X332015Y244047D01*
X331962Y244166D01*
X331920Y244224D01*
X331887Y244287D01*
X331803Y244387D01*
X331727Y244494D01*
X331676Y244542D01*
X331630Y244597D01*
X331529Y244679D01*
X331433Y244769D01*
X331373Y244806D01*
X331318Y244851D01*
X331202Y244911D01*
X331091Y244980D01*
X331024Y245005D01*
X330961Y245038D01*
X330836Y245074D01*
X330713Y245120D01*
X330643Y245131D01*
X330575Y245151D01*
X330445Y245162D01*
X330315Y245182D01*
X330244Y245179D01*
X330174Y245185D01*
X330044Y245171D01*
X329913Y245165D01*
X329844Y245148D01*
X329774Y245140D01*
X329649Y245100D01*
X329522Y245069D01*
X329458Y245039D01*
X329390Y245017D01*
X329276Y244953D01*
X329158Y244898D01*
X329101Y244855D01*
X329039Y244821D01*
X328940Y244736D01*
X328834Y244658D01*
X328787Y244605D01*
X328733Y244559D01*
X328652Y244456D01*
X328565Y244359D01*
X328522Y244289D01*
X328485Y244242D01*
X328451Y244174D01*
X328390Y244076D01*
X327711Y242743D01*
X326606Y241222D01*
X325278Y239894D01*
X323757Y238789D01*
X322083Y237936D01*
X320296Y237355D01*
X319531Y237234D01*
X319531Y249000D01*
X319530Y249017D01*
X319531Y249035D01*
X319510Y249218D01*
X319491Y249400D01*
X319486Y249417D01*
X319484Y249435D01*
X319427Y249610D01*
X319373Y249785D01*
X319365Y249801D01*
X319359Y249818D01*
X319269Y249978D01*
X319182Y250139D01*
X319170Y250153D01*
X319161Y250168D01*
X319041Y250308D01*
X318924Y250448D01*
X318924Y250449D01*
X318923Y250449D01*
X318910Y250460D01*
X318898Y250473D01*
X318898Y250474D01*
X318753Y250586D01*
X318610Y250701D01*
X318594Y250710D01*
X318580Y250720D01*
X318415Y250802D01*
X318252Y250887D01*
X318235Y250892D01*
X318219Y250900D01*
X318041Y250948D01*
X317865Y250998D01*
X317848Y251000D01*
X317830Y251004D01*
X317500Y251031D01*
X305734Y251031D01*
X305855Y251796D01*
X306436Y253583D01*
X307289Y255257D01*
X308394Y256778D01*
X309722Y258106D01*
X311243Y259211D01*
X312917Y260064D01*
X314704Y260645D01*
X316560Y260939D01*
X317183Y260939D01*
X317197Y260940D01*
X317210Y260939D01*
X317396Y260960D01*
X317584Y260979D01*
X317597Y260983D01*
X317610Y260984D01*
X317788Y261041D01*
X317969Y261097D01*
X317981Y261103D01*
X317993Y261107D01*
X318158Y261199D01*
X318323Y261289D01*
X318333Y261297D01*
X318345Y261304D01*
X318489Y261427D01*
X318632Y261546D01*
X318640Y261557D01*
X318651Y261565D01*
X318767Y261714D01*
X318884Y261860D01*
X318891Y261872D01*
X318899Y261882D01*
X318984Y262052D01*
X319070Y262217D01*
X319074Y262230D01*
X319080Y262242D01*
X319129Y262424D01*
X319181Y262604D01*
X319182Y262618D01*
X319186Y262631D01*
X319199Y262817D01*
X319214Y263006D01*
X319213Y263019D01*
X319214Y263032D01*
X319189Y263219D01*
X319167Y263405D01*
X319163Y263418D01*
X319161Y263431D01*
X319060Y263747D01*
X318261Y265675D01*
X318261Y270425D01*
X320079Y274813D01*
X323437Y278171D01*
X323503Y278198D01*
X323511Y278203D01*
X323519Y278205D01*
X323690Y278298D01*
X323858Y278388D01*
X323865Y278394D01*
X323873Y278398D01*
X324021Y278524D01*
X324168Y278645D01*
X324174Y278652D01*
X324181Y278658D01*
X324302Y278810D01*
X324422Y278958D01*
X324426Y278965D01*
X324432Y278972D01*
X324520Y279145D01*
X324609Y279314D01*
X324611Y279323D01*
X324616Y279331D01*
X324668Y279516D01*
X324722Y279700D01*
X324723Y279709D01*
X324725Y279718D01*
X324740Y279909D01*
X324757Y280102D01*
X324756Y280110D01*
X324756Y280119D01*
X324733Y280310D01*
X324712Y280502D01*
X324709Y280510D01*
X324708Y280519D01*
X324647Y280704D01*
X324588Y280885D01*
X324584Y280893D01*
X324581Y280901D01*
X324485Y281069D01*
X324392Y281236D01*
X324386Y281243D01*
X324382Y281251D01*
X324256Y281396D01*
X324130Y281542D01*
X324123Y281548D01*
X324117Y281555D01*
X323965Y281671D01*
X323813Y281791D01*
X323805Y281795D01*
X323798Y281800D01*
X323503Y281952D01*
X323437Y281979D01*
X320079Y285337D01*
X319377Y287033D01*
X319372Y287040D01*
X319370Y287049D01*
X319277Y287219D01*
X319186Y287387D01*
X319181Y287394D01*
X319176Y287402D01*
X319052Y287551D01*
X318930Y287698D01*
X318923Y287703D01*
X318917Y287710D01*
X318766Y287831D01*
X318617Y287952D01*
X318610Y287956D01*
X318602Y287961D01*
X318430Y288050D01*
X318261Y288139D01*
X318252Y288141D01*
X318244Y288145D01*
X318060Y288197D01*
X317874Y288252D01*
X317865Y288252D01*
X317857Y288255D01*
X317666Y288270D01*
X317473Y288286D01*
X317464Y288285D01*
X317456Y288286D01*
X317264Y288263D01*
X317073Y288241D01*
X317065Y288238D01*
X317056Y288237D01*
X316874Y288177D01*
X316690Y288118D01*
X316682Y288114D01*
X316674Y288111D01*
X316508Y288016D01*
X316338Y287922D01*
X316332Y287916D01*
X316324Y287911D01*
X316180Y287786D01*
X316033Y287660D01*
X316027Y287653D01*
X316020Y287647D01*
X315903Y287495D01*
X315784Y287343D01*
X315780Y287335D01*
X315775Y287328D01*
X315623Y287033D01*
X314921Y285337D01*
X311563Y281979D01*
X307175Y280161D01*
X302425Y280161D01*
X298037Y281979D01*
X294679Y285337D01*
X293977Y287033D01*
X293972Y287040D01*
X293970Y287049D01*
X293879Y287215D01*
X293786Y287387D01*
X293781Y287394D01*
X293776Y287402D01*
X293653Y287549D01*
X293530Y287698D01*
X293523Y287703D01*
X293517Y287710D01*
X293367Y287830D01*
X293217Y287952D01*
X293209Y287956D01*
X293203Y287961D01*
X293032Y288049D01*
X292861Y288139D01*
X292852Y288141D01*
X292844Y288145D01*
X292661Y288197D01*
X292475Y288252D01*
X292465Y288252D01*
X292457Y288255D01*
X292266Y288270D01*
X292073Y288286D01*
X292064Y288285D01*
X292056Y288286D01*
X291865Y288263D01*
X291673Y288241D01*
X291665Y288238D01*
X291656Y288237D01*
X291473Y288177D01*
X291290Y288118D01*
X291282Y288114D01*
X291274Y288111D01*
X291106Y288015D01*
X290939Y287922D01*
X290932Y287916D01*
X290924Y287911D01*
X290779Y287785D01*
X290633Y287660D01*
X290627Y287653D01*
X290620Y287647D01*
X290503Y287494D01*
X290384Y287343D01*
X290380Y287335D01*
X290375Y287328D01*
X290223Y287033D01*
X289521Y285337D01*
X286163Y281979D01*
X281775Y280161D01*
X277025Y280161D01*
X276981Y280180D01*
X276977Y280181D01*
X276973Y280183D01*
X276781Y280240D01*
X276595Y280296D01*
X276591Y280297D01*
X276587Y280298D01*
X276385Y280316D01*
X276195Y280334D01*
X276190Y280334D01*
X276186Y280334D01*
X275990Y280313D01*
X275794Y280293D01*
X275790Y280291D01*
X275785Y280291D01*
X275602Y280233D01*
X275410Y280173D01*
X275406Y280171D01*
X275402Y280169D01*
X275231Y280075D01*
X275057Y279980D01*
X275053Y279977D01*
X275049Y279974D01*
X274898Y279846D01*
X274748Y279720D01*
X274746Y279717D01*
X274742Y279714D01*
X274620Y279560D01*
X274497Y279406D01*
X274495Y279402D01*
X274493Y279398D01*
X274404Y279224D01*
X274314Y279047D01*
X274312Y279043D01*
X274310Y279039D01*
X274256Y278846D01*
X274204Y278660D01*
X274203Y278656D01*
X274202Y278651D01*
X274188Y278450D01*
X274173Y278259D01*
X274173Y278254D01*
X274173Y278250D01*
X274198Y278051D01*
X274221Y277859D01*
X274223Y277855D01*
X274223Y277850D01*
X274287Y277660D01*
X274348Y277477D01*
X274350Y277473D01*
X274352Y277469D01*
X274450Y277298D01*
X274547Y277127D01*
X274550Y277124D01*
X274552Y277120D01*
X274767Y276867D01*
X276821Y274813D01*
X278639Y270425D01*
X278639Y265675D01*
X277840Y263747D01*
X277836Y263734D01*
X277830Y263723D01*
X277778Y263542D01*
X277724Y263362D01*
X277722Y263349D01*
X277719Y263336D01*
X277703Y263147D01*
X277686Y262961D01*
X277687Y262948D01*
X277686Y262934D01*
X277708Y262748D01*
X277727Y262561D01*
X277731Y262548D01*
X277733Y262535D01*
X277791Y262357D01*
X277847Y262176D01*
X277853Y262164D01*
X277858Y262152D01*
X277950Y261988D01*
X278040Y261823D01*
X278049Y261813D01*
X278055Y261801D01*
X278178Y261659D01*
X278299Y261515D01*
X278310Y261507D01*
X278319Y261496D01*
X278466Y261382D01*
X278614Y261264D01*
X278626Y261258D01*
X278637Y261250D01*
X278804Y261166D01*
X278972Y261080D01*
X278985Y261076D01*
X278997Y261070D01*
X279180Y261021D01*
X279360Y260970D01*
X279373Y260969D01*
X279386Y260966D01*
X279717Y260939D01*
X281775Y260939D01*
X286163Y259121D01*
X289521Y255763D01*
X291339Y251375D01*
X291339Y246625D01*
X289521Y242237D01*
X286163Y238879D01*
X281775Y237061D01*
X277025Y237061D01*
G37*
%LPD*%
%LPC*%
G36*
X213525Y237061D02*
X213525Y237061D01*
X209137Y238879D01*
X205779Y242237D01*
X205077Y243932D01*
X205015Y244047D01*
X204962Y244166D01*
X204920Y244224D01*
X204887Y244287D01*
X204803Y244387D01*
X204727Y244494D01*
X204676Y244542D01*
X204630Y244597D01*
X204529Y244679D01*
X204433Y244769D01*
X204373Y244806D01*
X204318Y244851D01*
X204202Y244911D01*
X204091Y244980D01*
X204024Y245005D01*
X203961Y245038D01*
X203836Y245074D01*
X203713Y245120D01*
X203643Y245131D01*
X203575Y245151D01*
X203445Y245162D01*
X203315Y245182D01*
X203244Y245179D01*
X203174Y245185D01*
X203044Y245171D01*
X202913Y245165D01*
X202844Y245148D01*
X202774Y245140D01*
X202649Y245100D01*
X202522Y245069D01*
X202458Y245039D01*
X202390Y245017D01*
X202276Y244953D01*
X202158Y244898D01*
X202101Y244855D01*
X202039Y244821D01*
X201940Y244736D01*
X201834Y244658D01*
X201787Y244605D01*
X201733Y244559D01*
X201652Y244456D01*
X201565Y244359D01*
X201522Y244289D01*
X201485Y244242D01*
X201451Y244174D01*
X201390Y244076D01*
X200711Y242743D01*
X199606Y241222D01*
X198278Y239894D01*
X196757Y238789D01*
X195083Y237936D01*
X193296Y237355D01*
X192531Y237234D01*
X192531Y249000D01*
X192530Y249017D01*
X192531Y249035D01*
X192510Y249218D01*
X192491Y249400D01*
X192486Y249417D01*
X192484Y249435D01*
X192427Y249610D01*
X192373Y249785D01*
X192365Y249801D01*
X192359Y249818D01*
X192269Y249978D01*
X192182Y250139D01*
X192170Y250153D01*
X192161Y250168D01*
X192041Y250308D01*
X191924Y250448D01*
X191924Y250449D01*
X191923Y250449D01*
X191910Y250460D01*
X191898Y250473D01*
X191898Y250474D01*
X191753Y250586D01*
X191610Y250701D01*
X191594Y250710D01*
X191580Y250720D01*
X191415Y250802D01*
X191252Y250887D01*
X191235Y250892D01*
X191219Y250900D01*
X191041Y250948D01*
X190865Y250998D01*
X190848Y251000D01*
X190830Y251004D01*
X190500Y251031D01*
X178734Y251031D01*
X178855Y251796D01*
X179436Y253583D01*
X180289Y255257D01*
X181394Y256778D01*
X182722Y258106D01*
X184243Y259211D01*
X185917Y260064D01*
X187704Y260645D01*
X189560Y260939D01*
X190183Y260939D01*
X190197Y260940D01*
X190210Y260939D01*
X190396Y260960D01*
X190584Y260979D01*
X190597Y260983D01*
X190610Y260984D01*
X190788Y261041D01*
X190969Y261097D01*
X190981Y261103D01*
X190993Y261107D01*
X191158Y261199D01*
X191323Y261289D01*
X191333Y261297D01*
X191345Y261304D01*
X191489Y261427D01*
X191632Y261546D01*
X191640Y261557D01*
X191651Y261565D01*
X191767Y261714D01*
X191884Y261860D01*
X191891Y261872D01*
X191899Y261882D01*
X191984Y262052D01*
X192070Y262217D01*
X192074Y262230D01*
X192080Y262242D01*
X192129Y262424D01*
X192181Y262604D01*
X192182Y262618D01*
X192186Y262631D01*
X192199Y262817D01*
X192214Y263006D01*
X192213Y263019D01*
X192214Y263032D01*
X192189Y263219D01*
X192167Y263405D01*
X192163Y263418D01*
X192161Y263431D01*
X192060Y263747D01*
X191261Y265675D01*
X191261Y270425D01*
X193079Y274813D01*
X196437Y278171D01*
X200825Y279989D01*
X205575Y279989D01*
X209963Y278171D01*
X213321Y274813D01*
X215139Y270425D01*
X215139Y265675D01*
X214340Y263747D01*
X214336Y263734D01*
X214330Y263723D01*
X214278Y263542D01*
X214224Y263362D01*
X214222Y263349D01*
X214219Y263336D01*
X214203Y263147D01*
X214186Y262961D01*
X214187Y262948D01*
X214186Y262934D01*
X214208Y262748D01*
X214227Y262561D01*
X214231Y262548D01*
X214233Y262535D01*
X214291Y262357D01*
X214347Y262176D01*
X214353Y262164D01*
X214358Y262152D01*
X214450Y261988D01*
X214540Y261823D01*
X214549Y261813D01*
X214555Y261801D01*
X214678Y261659D01*
X214799Y261515D01*
X214810Y261507D01*
X214819Y261496D01*
X214966Y261382D01*
X215114Y261264D01*
X215126Y261258D01*
X215137Y261250D01*
X215304Y261166D01*
X215472Y261080D01*
X215485Y261076D01*
X215497Y261070D01*
X215680Y261021D01*
X215860Y260970D01*
X215873Y260969D01*
X215886Y260966D01*
X216217Y260939D01*
X218275Y260939D01*
X222663Y259121D01*
X226021Y255763D01*
X227839Y251375D01*
X227839Y246625D01*
X226021Y242237D01*
X222663Y238879D01*
X218275Y237061D01*
X213525Y237061D01*
G37*
%LPD*%
%LPC*%
G36*
X404025Y237061D02*
X404025Y237061D01*
X399637Y238879D01*
X396279Y242237D01*
X395577Y243932D01*
X395515Y244047D01*
X395462Y244166D01*
X395420Y244224D01*
X395387Y244287D01*
X395303Y244387D01*
X395227Y244494D01*
X395176Y244542D01*
X395130Y244597D01*
X395029Y244679D01*
X394933Y244769D01*
X394873Y244806D01*
X394818Y244851D01*
X394702Y244911D01*
X394591Y244980D01*
X394524Y245005D01*
X394461Y245038D01*
X394336Y245074D01*
X394213Y245120D01*
X394143Y245131D01*
X394075Y245151D01*
X393945Y245162D01*
X393815Y245182D01*
X393744Y245179D01*
X393674Y245185D01*
X393544Y245171D01*
X393413Y245165D01*
X393344Y245148D01*
X393274Y245140D01*
X393149Y245100D01*
X393022Y245069D01*
X392958Y245039D01*
X392890Y245017D01*
X392776Y244953D01*
X392658Y244898D01*
X392601Y244855D01*
X392539Y244821D01*
X392440Y244736D01*
X392334Y244658D01*
X392287Y244605D01*
X392233Y244559D01*
X392152Y244456D01*
X392065Y244359D01*
X392022Y244289D01*
X391985Y244242D01*
X391951Y244174D01*
X391890Y244076D01*
X391211Y242743D01*
X390106Y241222D01*
X388778Y239894D01*
X387257Y238789D01*
X385583Y237936D01*
X383796Y237355D01*
X383031Y237234D01*
X383031Y249000D01*
X383030Y249017D01*
X383031Y249035D01*
X383010Y249218D01*
X382991Y249400D01*
X382986Y249417D01*
X382984Y249435D01*
X382927Y249610D01*
X382873Y249785D01*
X382865Y249801D01*
X382859Y249818D01*
X382769Y249978D01*
X382682Y250139D01*
X382670Y250153D01*
X382661Y250168D01*
X382541Y250308D01*
X382424Y250448D01*
X382424Y250449D01*
X382423Y250449D01*
X382410Y250460D01*
X382398Y250473D01*
X382398Y250474D01*
X382253Y250586D01*
X382110Y250701D01*
X382094Y250710D01*
X382080Y250720D01*
X381915Y250802D01*
X381752Y250887D01*
X381735Y250892D01*
X381719Y250900D01*
X381541Y250948D01*
X381365Y250998D01*
X381348Y251000D01*
X381330Y251004D01*
X381000Y251031D01*
X369234Y251031D01*
X369355Y251796D01*
X369936Y253583D01*
X370789Y255257D01*
X371894Y256778D01*
X373222Y258106D01*
X374743Y259211D01*
X376417Y260064D01*
X378204Y260645D01*
X380060Y260939D01*
X380683Y260939D01*
X380697Y260940D01*
X380710Y260939D01*
X380896Y260960D01*
X381084Y260979D01*
X381097Y260983D01*
X381110Y260984D01*
X381288Y261041D01*
X381469Y261097D01*
X381481Y261103D01*
X381493Y261107D01*
X381658Y261199D01*
X381823Y261289D01*
X381833Y261297D01*
X381845Y261304D01*
X381989Y261427D01*
X382132Y261546D01*
X382140Y261557D01*
X382151Y261565D01*
X382267Y261714D01*
X382384Y261860D01*
X382391Y261872D01*
X382399Y261882D01*
X382484Y262052D01*
X382570Y262217D01*
X382574Y262230D01*
X382580Y262242D01*
X382629Y262424D01*
X382681Y262604D01*
X382682Y262618D01*
X382686Y262631D01*
X382699Y262817D01*
X382714Y263006D01*
X382713Y263019D01*
X382714Y263032D01*
X382689Y263219D01*
X382667Y263405D01*
X382663Y263418D01*
X382661Y263431D01*
X382560Y263747D01*
X381761Y265675D01*
X381761Y270425D01*
X383579Y274813D01*
X386937Y278171D01*
X391325Y279989D01*
X396075Y279989D01*
X400463Y278171D01*
X403821Y274813D01*
X405639Y270425D01*
X405639Y265675D01*
X404840Y263747D01*
X404836Y263734D01*
X404830Y263723D01*
X404778Y263542D01*
X404724Y263362D01*
X404722Y263349D01*
X404719Y263336D01*
X404703Y263147D01*
X404686Y262961D01*
X404687Y262948D01*
X404686Y262934D01*
X404708Y262748D01*
X404727Y262561D01*
X404731Y262548D01*
X404733Y262535D01*
X404791Y262357D01*
X404847Y262176D01*
X404853Y262164D01*
X404858Y262152D01*
X404950Y261988D01*
X405040Y261823D01*
X405049Y261813D01*
X405055Y261801D01*
X405178Y261659D01*
X405299Y261515D01*
X405310Y261507D01*
X405319Y261496D01*
X405466Y261382D01*
X405614Y261264D01*
X405626Y261258D01*
X405637Y261250D01*
X405804Y261166D01*
X405972Y261080D01*
X405985Y261076D01*
X405997Y261070D01*
X406180Y261021D01*
X406360Y260970D01*
X406373Y260969D01*
X406386Y260966D01*
X406717Y260939D01*
X408775Y260939D01*
X413163Y259121D01*
X416521Y255763D01*
X418339Y251375D01*
X418339Y246625D01*
X416521Y242237D01*
X413163Y238879D01*
X408775Y237061D01*
X404025Y237061D01*
G37*
%LPD*%
%LPC*%
G36*
X703504Y427299D02*
X703504Y427299D01*
X698836Y429233D01*
X695263Y432806D01*
X693329Y437474D01*
X693329Y442526D01*
X695263Y447194D01*
X698836Y450767D01*
X699639Y451100D01*
X703504Y452701D01*
X708556Y452701D01*
X713224Y450767D01*
X716797Y447194D01*
X718140Y443952D01*
X718182Y443874D01*
X718215Y443792D01*
X718277Y443697D01*
X718330Y443598D01*
X718387Y443529D01*
X718435Y443455D01*
X718515Y443374D01*
X718587Y443287D01*
X718656Y443231D01*
X718718Y443168D01*
X718812Y443105D01*
X718899Y443033D01*
X718978Y442992D01*
X719051Y442942D01*
X719156Y442899D01*
X719256Y442846D01*
X719341Y442822D01*
X719423Y442787D01*
X719534Y442765D01*
X719642Y442733D01*
X719731Y442726D01*
X719818Y442708D01*
X719931Y442708D01*
X720043Y442699D01*
X720131Y442709D01*
X720220Y442709D01*
X720331Y442731D01*
X720443Y442744D01*
X720528Y442771D01*
X720615Y442789D01*
X720719Y442832D01*
X720827Y442867D01*
X720904Y442910D01*
X720986Y442945D01*
X721079Y443008D01*
X721178Y443063D01*
X721246Y443121D01*
X721319Y443171D01*
X721398Y443252D01*
X721484Y443325D01*
X721539Y443395D01*
X721601Y443458D01*
X721663Y443553D01*
X721732Y443642D01*
X721772Y443722D01*
X721821Y443796D01*
X721875Y443926D01*
X721913Y444002D01*
X721925Y444046D01*
X721948Y444102D01*
X722200Y444875D01*
X723107Y446657D01*
X724282Y448274D01*
X725696Y449688D01*
X727313Y450863D01*
X729095Y451770D01*
X730996Y452388D01*
X731431Y452457D01*
X731431Y440508D01*
X731432Y440490D01*
X731431Y440473D01*
X731452Y440290D01*
X731471Y440108D01*
X731476Y440091D01*
X731478Y440073D01*
X731503Y439995D01*
X731464Y439858D01*
X731462Y439840D01*
X731458Y439823D01*
X731431Y439492D01*
X731431Y427543D01*
X730996Y427612D01*
X729095Y428230D01*
X727313Y429137D01*
X725696Y430312D01*
X724282Y431726D01*
X723107Y433343D01*
X722200Y435125D01*
X721948Y435898D01*
X721913Y435979D01*
X721886Y436064D01*
X721832Y436163D01*
X721787Y436267D01*
X721736Y436339D01*
X721693Y436417D01*
X721620Y436504D01*
X721555Y436596D01*
X721491Y436657D01*
X721434Y436725D01*
X721346Y436796D01*
X721264Y436874D01*
X721188Y436921D01*
X721119Y436976D01*
X721019Y437028D01*
X720923Y437088D01*
X720840Y437120D01*
X720761Y437160D01*
X720652Y437191D01*
X720547Y437231D01*
X720459Y437246D01*
X720374Y437270D01*
X720261Y437279D01*
X720149Y437297D01*
X720061Y437294D01*
X719972Y437301D01*
X719860Y437287D01*
X719747Y437284D01*
X719660Y437263D01*
X719573Y437252D01*
X719465Y437217D01*
X719355Y437191D01*
X719274Y437154D01*
X719190Y437126D01*
X719092Y437070D01*
X718989Y437023D01*
X718918Y436970D01*
X718841Y436926D01*
X718755Y436852D01*
X718664Y436786D01*
X718604Y436720D01*
X718537Y436662D01*
X718468Y436572D01*
X718392Y436489D01*
X718346Y436413D01*
X718292Y436343D01*
X718227Y436217D01*
X718183Y436145D01*
X718168Y436101D01*
X718140Y436048D01*
X716797Y432806D01*
X713224Y429233D01*
X708556Y427299D01*
X703504Y427299D01*
G37*
%LPD*%
%LPC*%
G36*
X763025Y268061D02*
X763025Y268061D01*
X758637Y269879D01*
X755279Y273237D01*
X754577Y274932D01*
X754515Y275047D01*
X754462Y275166D01*
X754420Y275224D01*
X754387Y275287D01*
X754303Y275387D01*
X754227Y275494D01*
X754176Y275542D01*
X754130Y275597D01*
X754029Y275679D01*
X753933Y275769D01*
X753873Y275806D01*
X753818Y275851D01*
X753702Y275911D01*
X753591Y275980D01*
X753524Y276005D01*
X753461Y276038D01*
X753336Y276074D01*
X753213Y276120D01*
X753143Y276131D01*
X753075Y276151D01*
X752945Y276162D01*
X752815Y276182D01*
X752744Y276179D01*
X752674Y276185D01*
X752544Y276171D01*
X752413Y276165D01*
X752344Y276148D01*
X752274Y276140D01*
X752149Y276100D01*
X752022Y276069D01*
X751958Y276039D01*
X751890Y276017D01*
X751776Y275953D01*
X751658Y275898D01*
X751601Y275855D01*
X751539Y275821D01*
X751440Y275736D01*
X751334Y275658D01*
X751287Y275605D01*
X751233Y275559D01*
X751152Y275456D01*
X751065Y275359D01*
X751022Y275289D01*
X750985Y275242D01*
X750951Y275174D01*
X750890Y275076D01*
X750211Y273743D01*
X749106Y272222D01*
X747778Y270894D01*
X746257Y269789D01*
X744583Y268936D01*
X742796Y268355D01*
X742031Y268234D01*
X742031Y280000D01*
X742031Y291766D01*
X742796Y291645D01*
X744583Y291064D01*
X746257Y290211D01*
X747778Y289106D01*
X749106Y287778D01*
X750211Y286257D01*
X750890Y284924D01*
X750961Y284813D01*
X751024Y284699D01*
X751070Y284644D01*
X751108Y284585D01*
X751199Y284491D01*
X751283Y284391D01*
X751339Y284346D01*
X751388Y284295D01*
X751496Y284221D01*
X751598Y284140D01*
X751661Y284107D01*
X751719Y284067D01*
X751840Y284015D01*
X751956Y283956D01*
X752024Y283936D01*
X752090Y283908D01*
X752218Y283882D01*
X752343Y283846D01*
X752414Y283841D01*
X752484Y283826D01*
X752615Y283825D01*
X752745Y283815D01*
X752815Y283823D01*
X752886Y283823D01*
X753015Y283848D01*
X753144Y283864D01*
X753212Y283886D01*
X753282Y283899D01*
X753403Y283949D01*
X753527Y283990D01*
X753588Y284025D01*
X753654Y284052D01*
X753763Y284125D01*
X753876Y284189D01*
X753930Y284236D01*
X753989Y284276D01*
X754081Y284368D01*
X754180Y284454D01*
X754223Y284510D01*
X754273Y284561D01*
X754346Y284670D01*
X754425Y284773D01*
X754463Y284846D01*
X754496Y284896D01*
X754525Y284967D01*
X754577Y285068D01*
X755279Y286763D01*
X758637Y290121D01*
X763025Y291939D01*
X767775Y291939D01*
X772163Y290121D01*
X775521Y286763D01*
X777339Y282375D01*
X777339Y277625D01*
X775521Y273237D01*
X772163Y269879D01*
X767775Y268061D01*
X763025Y268061D01*
G37*
%LPD*%
%LPC*%
G36*
X712225Y268061D02*
X712225Y268061D01*
X707837Y269879D01*
X704479Y273237D01*
X702661Y277625D01*
X702661Y282375D01*
X704479Y286763D01*
X707837Y290121D01*
X712225Y291939D01*
X716975Y291939D01*
X721363Y290121D01*
X724721Y286763D01*
X725423Y285068D01*
X725485Y284953D01*
X725538Y284834D01*
X725580Y284776D01*
X725613Y284713D01*
X725697Y284613D01*
X725773Y284506D01*
X725824Y284458D01*
X725870Y284403D01*
X725971Y284321D01*
X726067Y284231D01*
X726127Y284194D01*
X726182Y284149D01*
X726298Y284089D01*
X726409Y284020D01*
X726476Y283995D01*
X726539Y283962D01*
X726664Y283926D01*
X726787Y283880D01*
X726857Y283869D01*
X726925Y283849D01*
X727055Y283838D01*
X727185Y283818D01*
X727256Y283821D01*
X727326Y283815D01*
X727456Y283829D01*
X727587Y283835D01*
X727656Y283852D01*
X727726Y283860D01*
X727851Y283900D01*
X727978Y283931D01*
X728042Y283961D01*
X728110Y283983D01*
X728224Y284047D01*
X728342Y284102D01*
X728399Y284145D01*
X728461Y284179D01*
X728560Y284264D01*
X728666Y284342D01*
X728713Y284395D01*
X728767Y284441D01*
X728847Y284544D01*
X728935Y284641D01*
X728978Y284711D01*
X729015Y284758D01*
X729049Y284826D01*
X729110Y284924D01*
X729789Y286257D01*
X730894Y287778D01*
X732222Y289106D01*
X733743Y290211D01*
X735417Y291064D01*
X737204Y291645D01*
X737969Y291766D01*
X737969Y280000D01*
X737969Y268234D01*
X737204Y268355D01*
X735417Y268936D01*
X733743Y269789D01*
X732222Y270894D01*
X730894Y272222D01*
X729789Y273743D01*
X729110Y275076D01*
X729039Y275187D01*
X728976Y275301D01*
X728930Y275356D01*
X728892Y275415D01*
X728801Y275509D01*
X728717Y275609D01*
X728661Y275654D01*
X728612Y275705D01*
X728504Y275779D01*
X728402Y275860D01*
X728339Y275893D01*
X728281Y275933D01*
X728160Y275985D01*
X728044Y276044D01*
X727976Y276064D01*
X727910Y276092D01*
X727782Y276118D01*
X727657Y276154D01*
X727586Y276159D01*
X727516Y276174D01*
X727385Y276175D01*
X727255Y276185D01*
X727185Y276177D01*
X727114Y276177D01*
X726985Y276152D01*
X726856Y276136D01*
X726788Y276114D01*
X726718Y276101D01*
X726597Y276051D01*
X726473Y276010D01*
X726412Y275975D01*
X726346Y275948D01*
X726237Y275875D01*
X726124Y275811D01*
X726070Y275764D01*
X726011Y275724D01*
X725919Y275632D01*
X725820Y275546D01*
X725777Y275490D01*
X725727Y275439D01*
X725654Y275330D01*
X725575Y275227D01*
X725537Y275154D01*
X725504Y275104D01*
X725475Y275033D01*
X725423Y274932D01*
X724721Y273237D01*
X721363Y269879D01*
X716975Y268061D01*
X712225Y268061D01*
G37*
%LPD*%
%LPC*%
G36*
X226579Y45719D02*
X226579Y45719D01*
X222844Y47266D01*
X219986Y50124D01*
X218439Y53859D01*
X218439Y73141D01*
X219986Y76876D01*
X222844Y79734D01*
X226579Y81281D01*
X230621Y81281D01*
X234356Y79734D01*
X237214Y76876D01*
X238761Y73141D01*
X238761Y53859D01*
X237214Y50124D01*
X234356Y47266D01*
X230621Y45719D01*
X226579Y45719D01*
G37*
%LPD*%
%LPC*%
G36*
X328179Y45719D02*
X328179Y45719D01*
X324444Y47266D01*
X321586Y50124D01*
X320039Y53859D01*
X320039Y73141D01*
X321586Y76876D01*
X324444Y79734D01*
X328179Y81281D01*
X332221Y81281D01*
X335956Y79734D01*
X338814Y76876D01*
X340361Y73141D01*
X340361Y53859D01*
X338814Y50124D01*
X335956Y47266D01*
X332221Y45719D01*
X328179Y45719D01*
G37*
%LPD*%
%LPC*%
G36*
X353579Y45719D02*
X353579Y45719D01*
X349844Y47266D01*
X346986Y50124D01*
X345439Y53859D01*
X345439Y73141D01*
X346986Y76876D01*
X349844Y79734D01*
X353579Y81281D01*
X357621Y81281D01*
X361356Y79734D01*
X364214Y76876D01*
X365761Y73141D01*
X365761Y53859D01*
X364214Y50124D01*
X361356Y47266D01*
X357621Y45719D01*
X353579Y45719D01*
G37*
%LPD*%
%LPC*%
G36*
X48779Y45719D02*
X48779Y45719D01*
X45044Y47266D01*
X42186Y50124D01*
X40639Y53859D01*
X40639Y73141D01*
X42186Y76876D01*
X45044Y79734D01*
X48779Y81281D01*
X52821Y81281D01*
X56556Y79734D01*
X59414Y76876D01*
X60961Y73141D01*
X60961Y53859D01*
X59414Y50124D01*
X56556Y47266D01*
X52821Y45719D01*
X48779Y45719D01*
G37*
%LPD*%
%LPC*%
G36*
X480579Y45719D02*
X480579Y45719D01*
X476844Y47266D01*
X473986Y50124D01*
X472439Y53859D01*
X472439Y73141D01*
X473986Y76876D01*
X476844Y79734D01*
X480579Y81281D01*
X484621Y81281D01*
X488356Y79734D01*
X491214Y76876D01*
X492761Y73141D01*
X492761Y53859D01*
X491214Y50124D01*
X488356Y47266D01*
X484621Y45719D01*
X480579Y45719D01*
G37*
%LPD*%
%LPC*%
G36*
X188479Y426719D02*
X188479Y426719D01*
X184744Y428266D01*
X181886Y431124D01*
X180339Y434859D01*
X180339Y454141D01*
X181886Y457876D01*
X184744Y460734D01*
X188479Y462281D01*
X192521Y462281D01*
X196256Y460734D01*
X199114Y457876D01*
X200661Y454141D01*
X200661Y434859D01*
X199114Y431124D01*
X196256Y428266D01*
X192521Y426719D01*
X188479Y426719D01*
G37*
%LPD*%
%LPC*%
G36*
X455179Y45719D02*
X455179Y45719D01*
X451444Y47266D01*
X448586Y50124D01*
X447039Y53859D01*
X447039Y73141D01*
X448586Y76876D01*
X451444Y79734D01*
X455179Y81281D01*
X459221Y81281D01*
X462956Y79734D01*
X465814Y76876D01*
X467361Y73141D01*
X467361Y53859D01*
X465814Y50124D01*
X462956Y47266D01*
X459221Y45719D01*
X455179Y45719D01*
G37*
%LPD*%
%LPC*%
G36*
X74179Y45719D02*
X74179Y45719D01*
X70444Y47266D01*
X67586Y50124D01*
X66039Y53859D01*
X66039Y73141D01*
X67586Y76876D01*
X70444Y79734D01*
X74179Y81281D01*
X78221Y81281D01*
X81956Y79734D01*
X84814Y76876D01*
X86361Y73141D01*
X86361Y53859D01*
X84814Y50124D01*
X81956Y47266D01*
X78221Y45719D01*
X74179Y45719D01*
G37*
%LPD*%
%LPC*%
G36*
X201179Y45719D02*
X201179Y45719D01*
X197444Y47266D01*
X194586Y50124D01*
X193039Y53859D01*
X193039Y73141D01*
X194586Y76876D01*
X197444Y79734D01*
X201179Y81281D01*
X205221Y81281D01*
X208956Y79734D01*
X211814Y76876D01*
X213361Y73141D01*
X213361Y53859D01*
X211814Y50124D01*
X208956Y47266D01*
X205221Y45719D01*
X201179Y45719D01*
G37*
%LPD*%
%LPC*%
G36*
X175779Y45719D02*
X175779Y45719D01*
X172044Y47266D01*
X169186Y50124D01*
X167639Y53859D01*
X167639Y73141D01*
X169186Y76876D01*
X172044Y79734D01*
X175779Y81281D01*
X179821Y81281D01*
X183556Y79734D01*
X186414Y76876D01*
X187961Y73141D01*
X187961Y53859D01*
X186414Y50124D01*
X183556Y47266D01*
X179821Y45719D01*
X175779Y45719D01*
G37*
%LPD*%
%LPC*%
G36*
X99579Y45719D02*
X99579Y45719D01*
X95844Y47266D01*
X92986Y50124D01*
X91439Y53859D01*
X91439Y73141D01*
X92986Y76876D01*
X95844Y79734D01*
X99579Y81281D01*
X103621Y81281D01*
X107356Y79734D01*
X110214Y76876D01*
X111761Y73141D01*
X111761Y53859D01*
X110214Y50124D01*
X107356Y47266D01*
X103621Y45719D01*
X99579Y45719D01*
G37*
%LPD*%
%LPC*%
G36*
X134996Y258807D02*
X134996Y258807D01*
X133507Y260296D01*
X133507Y281704D01*
X134996Y283193D01*
X156404Y283193D01*
X157893Y281704D01*
X157893Y260296D01*
X156404Y258807D01*
X134996Y258807D01*
G37*
%LPD*%
%LPC*%
G36*
X142322Y418337D02*
X142322Y418337D01*
X137374Y420387D01*
X133587Y424174D01*
X131537Y429122D01*
X131537Y434478D01*
X133587Y439426D01*
X137374Y443213D01*
X142322Y445263D01*
X147678Y445263D01*
X152626Y443213D01*
X156413Y439426D01*
X158463Y434478D01*
X158463Y429122D01*
X156413Y424174D01*
X152626Y420387D01*
X147678Y418337D01*
X142322Y418337D01*
G37*
%LPD*%
%LPC*%
G36*
X454522Y134637D02*
X454522Y134637D01*
X449574Y136687D01*
X445787Y140474D01*
X443737Y145422D01*
X443737Y150778D01*
X445787Y155726D01*
X449574Y159513D01*
X454522Y161563D01*
X459878Y161563D01*
X464826Y159513D01*
X468613Y155726D01*
X470663Y150778D01*
X470663Y145422D01*
X468613Y140474D01*
X464826Y136687D01*
X459878Y134637D01*
X454522Y134637D01*
G37*
%LPD*%
%LPC*%
G36*
X454522Y169637D02*
X454522Y169637D01*
X449574Y171687D01*
X445787Y175474D01*
X443737Y180422D01*
X443737Y185778D01*
X445787Y190726D01*
X449574Y194513D01*
X454522Y196563D01*
X459878Y196563D01*
X464826Y194513D01*
X468613Y190726D01*
X470663Y185778D01*
X470663Y180422D01*
X468613Y175474D01*
X464826Y171687D01*
X461892Y170471D01*
X459878Y169637D01*
X454522Y169637D01*
G37*
%LPD*%
%LPC*%
G36*
X600725Y263061D02*
X600725Y263061D01*
X596337Y264879D01*
X592979Y268237D01*
X591161Y272625D01*
X591161Y277375D01*
X592979Y281763D01*
X596337Y285121D01*
X600725Y286939D01*
X605475Y286939D01*
X609863Y285121D01*
X613221Y281763D01*
X615039Y277375D01*
X615039Y272625D01*
X613221Y268237D01*
X609863Y264879D01*
X605475Y263061D01*
X600725Y263061D01*
G37*
%LPD*%
%LPC*%
G36*
X870137Y75455D02*
X870137Y75455D01*
X865749Y77273D01*
X862391Y80631D01*
X860573Y85019D01*
X860573Y89769D01*
X862391Y94157D01*
X865749Y97515D01*
X870137Y99333D01*
X874887Y99333D01*
X879275Y97515D01*
X882633Y94157D01*
X884451Y89769D01*
X884451Y85019D01*
X882633Y80631D01*
X879275Y77273D01*
X874887Y75455D01*
X870137Y75455D01*
G37*
%LPD*%
%LPC*%
G36*
X805113Y75455D02*
X805113Y75455D01*
X800725Y77273D01*
X797367Y80631D01*
X795549Y85019D01*
X795549Y89769D01*
X797367Y94157D01*
X800725Y97515D01*
X805113Y99333D01*
X809863Y99333D01*
X814251Y97515D01*
X817609Y94157D01*
X819427Y89769D01*
X819427Y85019D01*
X817609Y80631D01*
X814251Y77273D01*
X809863Y75455D01*
X805113Y75455D01*
G37*
%LPD*%
%LPC*%
G36*
X870137Y120667D02*
X870137Y120667D01*
X865749Y122485D01*
X862391Y125843D01*
X860573Y130231D01*
X860573Y134981D01*
X862391Y139369D01*
X865749Y142727D01*
X870137Y144545D01*
X874887Y144545D01*
X879275Y142727D01*
X882633Y139369D01*
X884451Y134981D01*
X884451Y130231D01*
X882633Y125843D01*
X879275Y122485D01*
X874887Y120667D01*
X870137Y120667D01*
G37*
%LPD*%
%LPC*%
G36*
X327825Y203961D02*
X327825Y203961D01*
X323437Y205779D01*
X320079Y209137D01*
X318261Y213525D01*
X318261Y218275D01*
X320079Y222663D01*
X323437Y226021D01*
X327825Y227839D01*
X332575Y227839D01*
X336963Y226021D01*
X340321Y222663D01*
X342139Y218275D01*
X342139Y213525D01*
X340321Y209137D01*
X336963Y205779D01*
X332575Y203961D01*
X327825Y203961D01*
G37*
%LPD*%
%LPC*%
G36*
X289725Y203961D02*
X289725Y203961D01*
X285337Y205779D01*
X281979Y209137D01*
X280161Y213525D01*
X280161Y218275D01*
X281979Y222663D01*
X285337Y226021D01*
X289725Y227839D01*
X294475Y227839D01*
X298863Y226021D01*
X302221Y222663D01*
X304039Y218275D01*
X304039Y213525D01*
X302221Y209137D01*
X298863Y205779D01*
X294475Y203961D01*
X289725Y203961D01*
G37*
%LPD*%
%LPC*%
G36*
X251625Y203961D02*
X251625Y203961D01*
X247237Y205779D01*
X243879Y209137D01*
X242061Y213525D01*
X242061Y218275D01*
X243879Y222663D01*
X247237Y226021D01*
X251625Y227839D01*
X256375Y227839D01*
X260763Y226021D01*
X264121Y222663D01*
X265939Y218275D01*
X265939Y213525D01*
X264121Y209137D01*
X260763Y205779D01*
X256375Y203961D01*
X251625Y203961D01*
G37*
%LPD*%
%LPC*%
G36*
X213525Y203961D02*
X213525Y203961D01*
X209137Y205779D01*
X205779Y209137D01*
X203961Y213525D01*
X203961Y218275D01*
X205779Y222663D01*
X209137Y226021D01*
X213525Y227839D01*
X218275Y227839D01*
X222663Y226021D01*
X226021Y222663D01*
X227839Y218275D01*
X227839Y213525D01*
X226021Y209137D01*
X222663Y205779D01*
X218275Y203961D01*
X213525Y203961D01*
G37*
%LPD*%
%LPC*%
G36*
X524525Y263061D02*
X524525Y263061D01*
X520137Y264879D01*
X516779Y268237D01*
X514961Y272625D01*
X514961Y277375D01*
X516779Y281763D01*
X520137Y285121D01*
X524525Y286939D01*
X529275Y286939D01*
X533663Y285121D01*
X537021Y281763D01*
X538839Y277375D01*
X538839Y272625D01*
X537021Y268237D01*
X533663Y264879D01*
X529275Y263061D01*
X524525Y263061D01*
G37*
%LPD*%
%LPC*%
G36*
X827578Y311231D02*
X827578Y311231D01*
X823657Y312855D01*
X820655Y315857D01*
X819031Y319778D01*
X819031Y324022D01*
X820655Y327943D01*
X823657Y330945D01*
X827578Y332569D01*
X831822Y332569D01*
X835743Y330945D01*
X838745Y327943D01*
X840369Y324022D01*
X840369Y319778D01*
X838745Y315857D01*
X835743Y312855D01*
X831822Y311231D01*
X827578Y311231D01*
G37*
%LPD*%
%LPC*%
G36*
X776778Y311231D02*
X776778Y311231D01*
X772857Y312855D01*
X769855Y315857D01*
X768231Y319778D01*
X768231Y324022D01*
X769855Y327943D01*
X772857Y330945D01*
X776778Y332569D01*
X781022Y332569D01*
X784943Y330945D01*
X787945Y327943D01*
X789569Y324022D01*
X789569Y319778D01*
X787945Y315857D01*
X784943Y312855D01*
X781022Y311231D01*
X776778Y311231D01*
G37*
%LPD*%
%LPC*%
G36*
X751378Y311231D02*
X751378Y311231D01*
X747457Y312855D01*
X744455Y315857D01*
X742831Y319778D01*
X742831Y324022D01*
X744455Y327943D01*
X747457Y330945D01*
X751378Y332569D01*
X755622Y332569D01*
X759543Y330945D01*
X762545Y327943D01*
X764169Y324022D01*
X764169Y319778D01*
X762545Y315857D01*
X759543Y312855D01*
X755622Y311231D01*
X751378Y311231D01*
G37*
%LPD*%
%LPC*%
G36*
X725978Y311231D02*
X725978Y311231D01*
X722057Y312855D01*
X719055Y315857D01*
X717431Y319778D01*
X717431Y324022D01*
X719055Y327943D01*
X722057Y330945D01*
X725978Y332569D01*
X730222Y332569D01*
X734143Y330945D01*
X737145Y327943D01*
X738769Y324022D01*
X738769Y319778D01*
X737145Y315857D01*
X734143Y312855D01*
X730222Y311231D01*
X725978Y311231D01*
G37*
%LPD*%
%LPC*%
G36*
X675178Y311231D02*
X675178Y311231D01*
X671257Y312855D01*
X668255Y315857D01*
X666631Y319778D01*
X666631Y324022D01*
X668255Y327943D01*
X671257Y330945D01*
X675178Y332569D01*
X679422Y332569D01*
X683343Y330945D01*
X686345Y327943D01*
X687969Y324022D01*
X687969Y319778D01*
X686345Y315857D01*
X683343Y312855D01*
X679422Y311231D01*
X675178Y311231D01*
G37*
%LPD*%
%LPC*%
G36*
X649778Y311231D02*
X649778Y311231D01*
X645857Y312855D01*
X642855Y315857D01*
X641231Y319778D01*
X641231Y324022D01*
X642855Y327943D01*
X645857Y330945D01*
X649778Y332569D01*
X654022Y332569D01*
X657943Y330945D01*
X660945Y327943D01*
X662569Y324022D01*
X662569Y319778D01*
X660945Y315857D01*
X657943Y312855D01*
X654022Y311231D01*
X649778Y311231D01*
G37*
%LPD*%
%LPC*%
G36*
X624378Y311231D02*
X624378Y311231D01*
X620457Y312855D01*
X617455Y315857D01*
X615831Y319778D01*
X615831Y324022D01*
X617455Y327943D01*
X620457Y330945D01*
X624378Y332569D01*
X628622Y332569D01*
X632543Y330945D01*
X635545Y327943D01*
X637169Y324022D01*
X637169Y319778D01*
X635545Y315857D01*
X632543Y312855D01*
X628622Y311231D01*
X624378Y311231D01*
G37*
%LPD*%
%LPC*%
G36*
X598978Y387431D02*
X598978Y387431D01*
X595057Y389055D01*
X592055Y392057D01*
X590431Y395978D01*
X590431Y400222D01*
X592055Y404143D01*
X595057Y407145D01*
X598978Y408769D01*
X603222Y408769D01*
X607143Y407145D01*
X610145Y404143D01*
X611769Y400222D01*
X611769Y395978D01*
X610145Y392057D01*
X607143Y389055D01*
X603222Y387431D01*
X598978Y387431D01*
G37*
%LPD*%
%LPC*%
G36*
X522778Y311231D02*
X522778Y311231D01*
X518857Y312855D01*
X515855Y315857D01*
X514231Y319778D01*
X514231Y324022D01*
X515855Y327943D01*
X518857Y330945D01*
X522778Y332569D01*
X527022Y332569D01*
X530943Y330945D01*
X533945Y327943D01*
X535569Y324022D01*
X535569Y319778D01*
X533945Y315857D01*
X530943Y312855D01*
X527022Y311231D01*
X522778Y311231D01*
G37*
%LPD*%
%LPC*%
G36*
X548178Y311231D02*
X548178Y311231D01*
X544257Y312855D01*
X541255Y315857D01*
X539631Y319778D01*
X539631Y324022D01*
X541255Y327943D01*
X544257Y330945D01*
X548178Y332569D01*
X552422Y332569D01*
X556343Y330945D01*
X559345Y327943D01*
X560969Y324022D01*
X560969Y319778D01*
X559345Y315857D01*
X556343Y312855D01*
X552422Y311231D01*
X548178Y311231D01*
G37*
%LPD*%
%LPC*%
G36*
X573578Y387431D02*
X573578Y387431D01*
X569657Y389055D01*
X566655Y392057D01*
X565031Y395978D01*
X565031Y400222D01*
X566655Y404143D01*
X569657Y407145D01*
X573578Y408769D01*
X577822Y408769D01*
X581743Y407145D01*
X584745Y404143D01*
X586369Y400222D01*
X586369Y395978D01*
X584745Y392057D01*
X581743Y389055D01*
X577822Y387431D01*
X573578Y387431D01*
G37*
%LPD*%
%LPC*%
G36*
X725978Y387431D02*
X725978Y387431D01*
X722057Y389055D01*
X719055Y392057D01*
X717431Y395978D01*
X717431Y400222D01*
X719055Y404143D01*
X722057Y407145D01*
X725978Y408769D01*
X730222Y408769D01*
X734143Y407145D01*
X737145Y404143D01*
X738769Y400222D01*
X738769Y395978D01*
X737145Y392057D01*
X734143Y389055D01*
X730222Y387431D01*
X725978Y387431D01*
G37*
%LPD*%
%LPC*%
G36*
X649778Y387431D02*
X649778Y387431D01*
X645857Y389055D01*
X642855Y392057D01*
X641231Y395978D01*
X641231Y400222D01*
X642855Y404143D01*
X645857Y407145D01*
X649778Y408769D01*
X654022Y408769D01*
X657943Y407145D01*
X660945Y404143D01*
X662569Y400222D01*
X662569Y395978D01*
X660945Y392057D01*
X657943Y389055D01*
X654022Y387431D01*
X649778Y387431D01*
G37*
%LPD*%
%LPC*%
G36*
X548178Y387431D02*
X548178Y387431D01*
X544257Y389055D01*
X541255Y392057D01*
X539631Y395978D01*
X539631Y400222D01*
X541255Y404143D01*
X544257Y407145D01*
X548178Y408769D01*
X552422Y408769D01*
X556343Y407145D01*
X559345Y404143D01*
X560969Y400222D01*
X560969Y395978D01*
X559345Y392057D01*
X556343Y389055D01*
X552422Y387431D01*
X548178Y387431D01*
G37*
%LPD*%
%LPC*%
G36*
X852978Y311231D02*
X852978Y311231D01*
X849057Y312855D01*
X846055Y315857D01*
X844431Y319778D01*
X844431Y324022D01*
X846055Y327943D01*
X849057Y330945D01*
X852978Y332569D01*
X857222Y332569D01*
X861143Y330945D01*
X864145Y327943D01*
X865769Y324022D01*
X865769Y319778D01*
X864145Y315857D01*
X861143Y312855D01*
X857222Y311231D01*
X852978Y311231D01*
G37*
%LPD*%
%LPC*%
G36*
X522778Y387431D02*
X522778Y387431D01*
X518857Y389055D01*
X515855Y392057D01*
X514231Y395978D01*
X514231Y400222D01*
X515855Y404143D01*
X518857Y407145D01*
X522778Y408769D01*
X527022Y408769D01*
X530943Y407145D01*
X533945Y404143D01*
X535569Y400222D01*
X535569Y395978D01*
X533945Y392057D01*
X530943Y389055D01*
X527022Y387431D01*
X522778Y387431D01*
G37*
%LPD*%
%LPC*%
G36*
X598978Y311231D02*
X598978Y311231D01*
X595057Y312855D01*
X592055Y315857D01*
X590431Y319778D01*
X590431Y324022D01*
X592055Y327943D01*
X595057Y330945D01*
X598978Y332569D01*
X603222Y332569D01*
X607143Y330945D01*
X610145Y327943D01*
X611769Y324022D01*
X611769Y319778D01*
X610145Y315857D01*
X607143Y312855D01*
X603222Y311231D01*
X598978Y311231D01*
G37*
%LPD*%
%LPC*%
G36*
X573578Y311231D02*
X573578Y311231D01*
X569657Y312855D01*
X566655Y315857D01*
X565031Y319778D01*
X565031Y324022D01*
X566655Y327943D01*
X569657Y330945D01*
X573578Y332569D01*
X577822Y332569D01*
X581743Y330945D01*
X584745Y327943D01*
X586369Y324022D01*
X586369Y319778D01*
X584745Y315857D01*
X581743Y312855D01*
X577822Y311231D01*
X573578Y311231D01*
G37*
%LPD*%
%LPC*%
G36*
X700578Y387431D02*
X700578Y387431D01*
X696657Y389055D01*
X693655Y392057D01*
X692031Y395978D01*
X692031Y400222D01*
X693655Y404143D01*
X696657Y407145D01*
X700578Y408769D01*
X704822Y408769D01*
X708743Y407145D01*
X711745Y404143D01*
X713369Y400222D01*
X713369Y395978D01*
X711745Y392057D01*
X708743Y389055D01*
X704822Y387431D01*
X700578Y387431D01*
G37*
%LPD*%
%LPC*%
G36*
X624378Y387431D02*
X624378Y387431D01*
X620457Y389055D01*
X617455Y392057D01*
X615831Y395978D01*
X615831Y400222D01*
X617455Y404143D01*
X620457Y407145D01*
X624378Y408769D01*
X628622Y408769D01*
X632543Y407145D01*
X635545Y404143D01*
X637169Y400222D01*
X637169Y395978D01*
X635545Y392057D01*
X632543Y389055D01*
X628622Y387431D01*
X624378Y387431D01*
G37*
%LPD*%
%LPC*%
G36*
X878193Y240493D02*
X878193Y240493D01*
X878193Y268141D01*
X878196Y268141D01*
X879983Y267560D01*
X881657Y266707D01*
X883178Y265602D01*
X884506Y264274D01*
X885611Y262753D01*
X886464Y261079D01*
X887045Y259292D01*
X887339Y257436D01*
X887339Y240493D01*
X878193Y240493D01*
G37*
%LPD*%
%LPC*%
G36*
X218439Y447039D02*
X218439Y447039D01*
X218439Y461979D01*
X219800Y461536D01*
X221225Y460810D01*
X222519Y459870D01*
X223650Y458739D01*
X224590Y457445D01*
X225316Y456020D01*
X225811Y454499D01*
X226061Y452920D01*
X226061Y447039D01*
X218439Y447039D01*
G37*
%LPD*%
%LPC*%
G36*
X434339Y66039D02*
X434339Y66039D01*
X434339Y80979D01*
X435700Y80536D01*
X437125Y79810D01*
X438419Y78870D01*
X439550Y77739D01*
X440490Y76445D01*
X441216Y75020D01*
X441711Y73499D01*
X441961Y71920D01*
X441961Y66039D01*
X434339Y66039D01*
G37*
%LPD*%
%LPC*%
G36*
X307339Y66039D02*
X307339Y66039D01*
X307339Y80979D01*
X308700Y80536D01*
X310125Y79810D01*
X311419Y78870D01*
X312550Y77739D01*
X313490Y76445D01*
X314216Y75020D01*
X314711Y73499D01*
X314961Y71920D01*
X314961Y66039D01*
X307339Y66039D01*
G37*
%LPD*%
%LPC*%
G36*
X218439Y441961D02*
X218439Y441961D01*
X226061Y441961D01*
X226061Y436080D01*
X225811Y434501D01*
X225316Y432980D01*
X224590Y431555D01*
X223650Y430261D01*
X222519Y429130D01*
X221225Y428190D01*
X219800Y427464D01*
X218439Y427021D01*
X218439Y441961D01*
G37*
%LPD*%
%LPC*%
G36*
X434339Y60961D02*
X434339Y60961D01*
X441961Y60961D01*
X441961Y55080D01*
X441711Y53501D01*
X441216Y51980D01*
X440490Y50555D01*
X439550Y49261D01*
X438419Y48130D01*
X437125Y47190D01*
X435700Y46464D01*
X434339Y46021D01*
X434339Y60961D01*
G37*
%LPD*%
%LPC*%
G36*
X307339Y60961D02*
X307339Y60961D01*
X314961Y60961D01*
X314961Y55080D01*
X314711Y53501D01*
X314216Y51980D01*
X313490Y50555D01*
X312550Y49261D01*
X311419Y48130D01*
X310125Y47190D01*
X308700Y46464D01*
X307339Y46021D01*
X307339Y60961D01*
G37*
%LPD*%
%LPC*%
G36*
X421639Y66039D02*
X421639Y66039D01*
X421639Y71920D01*
X421889Y73499D01*
X422384Y75020D01*
X423110Y76445D01*
X424050Y77739D01*
X425181Y78870D01*
X426475Y79810D01*
X427900Y80536D01*
X429261Y80979D01*
X429261Y66039D01*
X421639Y66039D01*
G37*
%LPD*%
%LPC*%
G36*
X294639Y66039D02*
X294639Y66039D01*
X294639Y71920D01*
X294889Y73499D01*
X295384Y75020D01*
X296110Y76445D01*
X297050Y77739D01*
X298181Y78870D01*
X299475Y79810D01*
X300900Y80536D01*
X302261Y80979D01*
X302261Y66039D01*
X294639Y66039D01*
G37*
%LPD*%
%LPC*%
G36*
X205739Y447039D02*
X205739Y447039D01*
X205739Y452920D01*
X205989Y454499D01*
X206484Y456020D01*
X207210Y457445D01*
X208150Y458739D01*
X209281Y459870D01*
X210575Y460810D01*
X212000Y461536D01*
X213361Y461979D01*
X213361Y447039D01*
X205739Y447039D01*
G37*
%LPD*%
%LPC*%
G36*
X212000Y427464D02*
X212000Y427464D01*
X210575Y428190D01*
X209281Y429130D01*
X208150Y430261D01*
X207210Y431555D01*
X206484Y432980D01*
X205989Y434501D01*
X205739Y436080D01*
X205739Y441961D01*
X213361Y441961D01*
X213361Y427021D01*
X212000Y427464D01*
G37*
%LPD*%
%LPC*%
G36*
X427900Y46464D02*
X427900Y46464D01*
X426475Y47190D01*
X425181Y48130D01*
X424050Y49261D01*
X423110Y50555D01*
X422384Y51980D01*
X421889Y53501D01*
X421639Y55080D01*
X421639Y60961D01*
X429261Y60961D01*
X429261Y46021D01*
X427900Y46464D01*
G37*
%LPD*%
%LPC*%
G36*
X300900Y46464D02*
X300900Y46464D01*
X299475Y47190D01*
X298181Y48130D01*
X297050Y49261D01*
X296110Y50555D01*
X295384Y51980D01*
X294889Y53501D01*
X294639Y55080D01*
X294639Y60961D01*
X302261Y60961D01*
X302261Y46021D01*
X300900Y46464D01*
G37*
%LPD*%
%LPC*%
G36*
X112499Y434299D02*
X112499Y434299D01*
X112499Y445035D01*
X113153Y444931D01*
X115168Y444276D01*
X117056Y443314D01*
X118770Y442069D01*
X120269Y440570D01*
X121514Y438856D01*
X122476Y436968D01*
X123131Y434953D01*
X123235Y434299D01*
X112499Y434299D01*
G37*
%LPD*%
%LPC*%
G36*
X112499Y429301D02*
X112499Y429301D01*
X123235Y429301D01*
X123131Y428647D01*
X122476Y426632D01*
X121514Y424744D01*
X120269Y423030D01*
X118770Y421531D01*
X117056Y420286D01*
X115168Y419324D01*
X113153Y418669D01*
X112499Y418565D01*
X112499Y429301D01*
G37*
%LPD*%
%LPC*%
G36*
X96765Y434299D02*
X96765Y434299D01*
X96869Y434953D01*
X97524Y436968D01*
X98486Y438856D01*
X99731Y440570D01*
X101230Y442069D01*
X102944Y443314D01*
X104832Y444276D01*
X106847Y444931D01*
X107501Y445035D01*
X107501Y434299D01*
X96765Y434299D01*
G37*
%LPD*%
%LPC*%
G36*
X106847Y418669D02*
X106847Y418669D01*
X104832Y419324D01*
X102944Y420286D01*
X101230Y421531D01*
X99731Y423030D01*
X98486Y424744D01*
X97524Y426632D01*
X96869Y428647D01*
X96765Y429301D01*
X107501Y429301D01*
X107501Y418565D01*
X106847Y418669D01*
G37*
%LPD*%
%LPC*%
G36*
X736509Y442539D02*
X736509Y442539D01*
X736509Y452457D01*
X736944Y452388D01*
X738845Y451770D01*
X740627Y450863D01*
X742244Y449688D01*
X743658Y448274D01*
X744833Y446657D01*
X745740Y444875D01*
X746358Y442974D01*
X746427Y442539D01*
X736509Y442539D01*
G37*
%LPD*%
%LPC*%
G36*
X736509Y437461D02*
X736509Y437461D01*
X746427Y437461D01*
X746358Y437026D01*
X745740Y435125D01*
X744833Y433343D01*
X743658Y431726D01*
X742244Y430312D01*
X740627Y429137D01*
X738845Y428230D01*
X736944Y427612D01*
X736509Y427543D01*
X736509Y437461D01*
G37*
%LPD*%
%LPC*%
G36*
X251204Y237355D02*
X251204Y237355D01*
X249417Y237936D01*
X247743Y238789D01*
X246222Y239894D01*
X244894Y241222D01*
X243789Y242743D01*
X242936Y244417D01*
X242355Y246204D01*
X242234Y246969D01*
X251969Y246969D01*
X251969Y237234D01*
X251204Y237355D01*
G37*
%LPD*%
%LPC*%
G36*
X314704Y237355D02*
X314704Y237355D01*
X312917Y237936D01*
X311243Y238789D01*
X309722Y239894D01*
X308394Y241222D01*
X307289Y242743D01*
X306436Y244417D01*
X305855Y246204D01*
X305734Y246969D01*
X315469Y246969D01*
X315469Y237234D01*
X314704Y237355D01*
G37*
%LPD*%
%LPC*%
G36*
X378204Y237355D02*
X378204Y237355D01*
X376417Y237936D01*
X374743Y238789D01*
X373222Y239894D01*
X371894Y241222D01*
X370789Y242743D01*
X369936Y244417D01*
X369355Y246204D01*
X369234Y246969D01*
X378969Y246969D01*
X378969Y237234D01*
X378204Y237355D01*
G37*
%LPD*%
%LPC*%
G36*
X187704Y237355D02*
X187704Y237355D01*
X185917Y237936D01*
X184243Y238789D01*
X182722Y239894D01*
X181394Y241222D01*
X180289Y242743D01*
X179436Y244417D01*
X178855Y246204D01*
X178734Y246969D01*
X188469Y246969D01*
X188469Y237234D01*
X187704Y237355D01*
G37*
%LPD*%
%LPC*%
G36*
X97949Y273249D02*
X97949Y273249D01*
X97949Y282988D01*
X98555Y282892D01*
X100380Y282299D01*
X102090Y281428D01*
X103643Y280300D01*
X105000Y278943D01*
X106128Y277390D01*
X106999Y275680D01*
X107592Y273855D01*
X107688Y273249D01*
X97949Y273249D01*
G37*
%LPD*%
%LPC*%
G36*
X97949Y268751D02*
X97949Y268751D01*
X107688Y268751D01*
X107592Y268145D01*
X106999Y266320D01*
X106128Y264610D01*
X105000Y263057D01*
X103643Y261700D01*
X102090Y260572D01*
X100380Y259701D01*
X98555Y259108D01*
X97949Y259012D01*
X97949Y268751D01*
G37*
%LPD*%
%LPC*%
G36*
X83712Y273249D02*
X83712Y273249D01*
X83808Y273855D01*
X84401Y275680D01*
X85272Y277390D01*
X86400Y278943D01*
X87757Y280300D01*
X89310Y281428D01*
X91020Y282299D01*
X92845Y282892D01*
X93451Y282988D01*
X93451Y273249D01*
X83712Y273249D01*
G37*
%LPD*%
%LPC*%
G36*
X92845Y259108D02*
X92845Y259108D01*
X91020Y259701D01*
X89310Y260572D01*
X87757Y261700D01*
X86400Y263057D01*
X85272Y264610D01*
X84401Y266320D01*
X83808Y268145D01*
X83712Y268751D01*
X93451Y268751D01*
X93451Y259012D01*
X92845Y259108D01*
G37*
%LPD*%
%LPC*%
G36*
X810027Y135145D02*
X810027Y135145D01*
X810027Y144291D01*
X810284Y144251D01*
X812071Y143670D01*
X813745Y142817D01*
X815266Y141712D01*
X816594Y140384D01*
X817699Y138863D01*
X818552Y137189D01*
X819133Y135402D01*
X819173Y135145D01*
X810027Y135145D01*
G37*
%LPD*%
%LPC*%
G36*
X810027Y130067D02*
X810027Y130067D01*
X819173Y130067D01*
X819133Y129810D01*
X818552Y128023D01*
X817699Y126349D01*
X816594Y124828D01*
X815266Y123500D01*
X813745Y122395D01*
X812071Y121542D01*
X810284Y120961D01*
X810027Y120921D01*
X810027Y130067D01*
G37*
%LPD*%
%LPC*%
G36*
X795803Y135145D02*
X795803Y135145D01*
X795843Y135402D01*
X796424Y137189D01*
X797277Y138863D01*
X798382Y140384D01*
X799710Y141712D01*
X801231Y142817D01*
X802905Y143670D01*
X804692Y144251D01*
X804949Y144291D01*
X804949Y135145D01*
X795803Y135145D01*
G37*
%LPD*%
%LPC*%
G36*
X804692Y120961D02*
X804692Y120961D01*
X802905Y121542D01*
X801231Y122395D01*
X799710Y123500D01*
X798382Y124828D01*
X797277Y126349D01*
X796424Y128023D01*
X795843Y129810D01*
X795803Y130067D01*
X804949Y130067D01*
X804949Y120921D01*
X804692Y120961D01*
G37*
%LPD*%
%LPC*%
G36*
X704731Y323931D02*
X704731Y323931D01*
X704731Y332380D01*
X705198Y332306D01*
X706795Y331787D01*
X708292Y331025D01*
X709650Y330038D01*
X710838Y328850D01*
X711825Y327492D01*
X712587Y325995D01*
X713106Y324398D01*
X713180Y323931D01*
X704731Y323931D01*
G37*
%LPD*%
%LPC*%
G36*
X679331Y400131D02*
X679331Y400131D01*
X679331Y408580D01*
X679798Y408506D01*
X681395Y407987D01*
X682892Y407225D01*
X684250Y406238D01*
X685438Y405050D01*
X686425Y403692D01*
X687187Y402195D01*
X687706Y400598D01*
X687780Y400131D01*
X679331Y400131D01*
G37*
%LPD*%
%LPC*%
G36*
X704731Y319869D02*
X704731Y319869D01*
X713180Y319869D01*
X713106Y319402D01*
X712587Y317805D01*
X711825Y316308D01*
X710838Y314950D01*
X709650Y313762D01*
X708292Y312775D01*
X706795Y312013D01*
X705198Y311494D01*
X704731Y311420D01*
X704731Y319869D01*
G37*
%LPD*%
%LPC*%
G36*
X679331Y396069D02*
X679331Y396069D01*
X687780Y396069D01*
X687706Y395602D01*
X687187Y394005D01*
X686425Y392508D01*
X685438Y391150D01*
X684250Y389962D01*
X682892Y388975D01*
X681395Y388213D01*
X679798Y387694D01*
X679331Y387620D01*
X679331Y396069D01*
G37*
%LPD*%
%LPC*%
G36*
X692220Y323931D02*
X692220Y323931D01*
X692294Y324398D01*
X692813Y325995D01*
X693575Y327492D01*
X694562Y328850D01*
X695750Y330038D01*
X697108Y331025D01*
X698605Y331787D01*
X700202Y332306D01*
X700669Y332380D01*
X700669Y323931D01*
X692220Y323931D01*
G37*
%LPD*%
%LPC*%
G36*
X666820Y400131D02*
X666820Y400131D01*
X666894Y400598D01*
X667413Y402195D01*
X668175Y403692D01*
X669162Y405050D01*
X670350Y406238D01*
X671708Y407225D01*
X673205Y407987D01*
X674802Y408506D01*
X675269Y408580D01*
X675269Y400131D01*
X666820Y400131D01*
G37*
%LPD*%
%LPC*%
G36*
X674802Y387694D02*
X674802Y387694D01*
X673205Y388213D01*
X671708Y388975D01*
X670350Y389962D01*
X669162Y391150D01*
X668175Y392508D01*
X667413Y394005D01*
X666894Y395602D01*
X666820Y396069D01*
X675269Y396069D01*
X675269Y387620D01*
X674802Y387694D01*
G37*
%LPD*%
%LPC*%
G36*
X700202Y311494D02*
X700202Y311494D01*
X698605Y312013D01*
X697108Y312775D01*
X695750Y313762D01*
X694562Y314950D01*
X693575Y316308D01*
X692813Y317805D01*
X692294Y319402D01*
X692220Y319869D01*
X700669Y319869D01*
X700669Y311420D01*
X700202Y311494D01*
G37*
%LPD*%
D10*
X95700Y271000D03*
D11*
X145700Y271000D03*
D12*
X457200Y183100D03*
X457200Y148100D03*
X145000Y431800D03*
X110000Y431800D03*
D13*
X101600Y71120D02*
X101600Y55880D01*
X76200Y55880D02*
X76200Y71120D01*
X50800Y71120D02*
X50800Y55880D01*
X228600Y55880D02*
X228600Y71120D01*
X203200Y71120D02*
X203200Y55880D01*
X177800Y55880D02*
X177800Y71120D01*
X482600Y71120D02*
X482600Y55880D01*
X457200Y55880D02*
X457200Y71120D01*
X431800Y71120D02*
X431800Y55880D01*
X355600Y55880D02*
X355600Y71120D01*
X330200Y71120D02*
X330200Y55880D01*
X304800Y55880D02*
X304800Y71120D01*
D14*
X215900Y215900D03*
X215900Y139700D03*
X254000Y368300D03*
X254000Y292100D03*
X190500Y249000D03*
X203200Y268050D03*
X215900Y249000D03*
X254000Y215900D03*
X254000Y139700D03*
X279400Y368300D03*
X279400Y292100D03*
X254000Y249000D03*
X266700Y268050D03*
X279400Y249000D03*
X330200Y215900D03*
X330200Y139700D03*
X330200Y368300D03*
X330200Y292100D03*
X381000Y249000D03*
X393700Y268050D03*
X406400Y249000D03*
X292100Y215900D03*
X292100Y139700D03*
X304800Y368300D03*
X304800Y292100D03*
X317500Y249000D03*
X330200Y268050D03*
X342900Y249000D03*
D13*
X330200Y398780D02*
X330200Y414020D01*
X304800Y414020D02*
X304800Y398780D01*
X279400Y398780D02*
X279400Y414020D01*
X254000Y414020D02*
X254000Y398780D01*
D15*
X330200Y435102D02*
X330200Y453898D01*
X304800Y453898D02*
X304800Y435102D01*
X279400Y435102D02*
X279400Y453898D01*
X254000Y453898D02*
X254000Y435102D01*
D13*
X215900Y436880D02*
X215900Y452120D01*
X190500Y452120D02*
X190500Y436880D01*
D16*
X524900Y321900D03*
X550300Y321900D03*
X575700Y321900D03*
X601100Y321900D03*
X626500Y321900D03*
X651900Y321900D03*
X677300Y321900D03*
X702700Y321900D03*
X728100Y321900D03*
X753500Y321900D03*
X778900Y321900D03*
X804300Y321900D03*
X829700Y321900D03*
X855100Y321900D03*
X855100Y398100D03*
X829700Y398100D03*
X804300Y398100D03*
X778900Y398100D03*
X753500Y398100D03*
X728100Y398100D03*
X702700Y398100D03*
X677300Y398100D03*
X651900Y398100D03*
X626500Y398100D03*
X601100Y398100D03*
X575700Y398100D03*
X550300Y398100D03*
X524900Y398100D03*
D14*
X526900Y275000D03*
X603100Y275000D03*
X807488Y132606D03*
X872512Y132606D03*
X807488Y87394D03*
X872512Y87394D03*
D17*
X733970Y440000D03*
X706030Y440000D03*
D15*
X824600Y212300D02*
X824600Y193504D01*
X824600Y237700D02*
X824600Y256496D01*
X850000Y212300D02*
X850000Y193504D01*
X850000Y237700D02*
X850000Y256496D01*
X875400Y212300D02*
X875400Y193504D01*
X875400Y237700D02*
X875400Y256496D01*
D14*
X740000Y280000D03*
X714600Y280000D03*
X765400Y280000D03*
D18*
X203200Y101600D03*
D19*
X325200Y106600D02*
X330200Y101600D01*
X325200Y106600D02*
X208200Y106600D01*
X203200Y101600D01*
D18*
X330200Y101600D03*
D20*
X375000Y120000D03*
X150000Y120000D03*
D19*
X375000Y120000D01*
D21*
X254000Y444500D02*
X254000Y459000D01*
X265000Y470000D01*
X762400Y470000D01*
X804300Y428100D02*
X804300Y398100D01*
X804300Y428100D02*
X762400Y470000D01*
X782900Y363300D02*
X335200Y363300D01*
X330200Y368300D01*
X804300Y341900D02*
X804300Y321900D01*
X804300Y341900D02*
X782900Y363300D01*
D22*
X780000Y397000D02*
X778900Y398100D01*
D21*
X848584Y386416D02*
X880000Y355000D01*
X789460Y386416D02*
X778900Y396976D01*
X778900Y398100D01*
X789460Y386416D02*
X848584Y386416D01*
X880000Y355000D02*
X880000Y290000D01*
X860000Y270000D01*
X810000Y270000D01*
X810000Y226900D01*
X824600Y212300D01*
X837554Y188138D02*
X829966Y180550D01*
X819234Y180550D01*
X811646Y188138D01*
X811646Y217351D01*
X837554Y199854D02*
X850000Y212300D01*
X837554Y199854D02*
X837554Y188138D01*
X811646Y217351D02*
X804412Y224585D01*
X804412Y272315D02*
X807685Y275588D01*
X804412Y272315D02*
X804412Y224585D01*
X807685Y275588D02*
X857685Y275588D01*
X874412Y292315D01*
X844172Y380828D02*
X769648Y380828D01*
X753500Y396976D01*
X753500Y398100D01*
X844172Y380828D02*
X874412Y350588D01*
X874412Y292315D01*
M02*
