G04 EAGLE Gerber RS-274X export*
G75*
%MOMM*%
%FSLAX34Y34*%
%LPD*%
%INSoldermask Top*%
%IPPOS*%
%AMOC8*
5,1,8,0,0,1.08239X$1,22.5*%
G01*
%ADD10C,0.894081*%
%ADD11C,0.900000*%
%ADD12C,2.387600*%
%ADD13C,1.727200*%
%ADD14C,2.082800*%
%ADD15C,2.082800*%
%ADD16C,1.828800*%
%ADD17C,1.259600*%
%ADD18C,1.209600*%

G36*
X706016Y434853D02*
X706016Y434853D01*
X706142Y434852D01*
X707153Y434991D01*
X707201Y435007D01*
X707291Y435026D01*
X708246Y435388D01*
X708289Y435414D01*
X708373Y435453D01*
X709223Y436017D01*
X709260Y436052D01*
X709332Y436109D01*
X710036Y436849D01*
X710064Y436891D01*
X710122Y436962D01*
X710643Y437840D01*
X710661Y437887D01*
X710702Y437969D01*
X711015Y438941D01*
X711022Y438991D01*
X711043Y439080D01*
X711132Y440098D01*
X711127Y440148D01*
X711128Y440239D01*
X710997Y441203D01*
X710981Y441251D01*
X710962Y441340D01*
X710620Y442251D01*
X710594Y442294D01*
X710555Y442378D01*
X710018Y443189D01*
X709983Y443225D01*
X709927Y443298D01*
X709223Y443970D01*
X709181Y443998D01*
X709110Y444056D01*
X708275Y444554D01*
X708227Y444572D01*
X708145Y444612D01*
X707220Y444912D01*
X707169Y444919D01*
X707080Y444941D01*
X706111Y445027D01*
X706064Y445023D01*
X705989Y445026D01*
X705013Y444924D01*
X704965Y444910D01*
X704875Y444894D01*
X703946Y444578D01*
X703902Y444554D01*
X703817Y444517D01*
X702982Y444003D01*
X702945Y443969D01*
X702870Y443915D01*
X702171Y443227D01*
X702141Y443186D01*
X702081Y443117D01*
X701552Y442290D01*
X701533Y442244D01*
X701489Y442163D01*
X701157Y441240D01*
X701149Y441190D01*
X701124Y441101D01*
X701006Y440127D01*
X701009Y440077D01*
X701005Y439991D01*
X701100Y438989D01*
X701114Y438940D01*
X701130Y438850D01*
X701446Y437894D01*
X701470Y437849D01*
X701506Y437765D01*
X702027Y436904D01*
X702060Y436866D01*
X702113Y436791D01*
X702813Y436067D01*
X702854Y436038D01*
X702923Y435977D01*
X703766Y435427D01*
X703812Y435407D01*
X703893Y435363D01*
X704837Y435015D01*
X704887Y435006D01*
X704975Y434981D01*
X705973Y434851D01*
X706016Y434853D01*
G37*
G36*
X734007Y434853D02*
X734007Y434853D01*
X734133Y434852D01*
X735144Y434991D01*
X735192Y435007D01*
X735282Y435026D01*
X736237Y435388D01*
X736280Y435414D01*
X736364Y435453D01*
X737214Y436017D01*
X737251Y436052D01*
X737323Y436109D01*
X738027Y436849D01*
X738055Y436891D01*
X738113Y436962D01*
X738634Y437840D01*
X738652Y437887D01*
X738693Y437969D01*
X739006Y438941D01*
X739013Y438991D01*
X739034Y439080D01*
X739123Y440098D01*
X739118Y440148D01*
X739119Y440239D01*
X738988Y441203D01*
X738972Y441251D01*
X738953Y441340D01*
X738611Y442251D01*
X738585Y442294D01*
X738546Y442378D01*
X738009Y443189D01*
X737974Y443225D01*
X737918Y443298D01*
X737214Y443970D01*
X737172Y443998D01*
X737101Y444056D01*
X736266Y444554D01*
X736218Y444572D01*
X736136Y444612D01*
X735211Y444912D01*
X735160Y444919D01*
X735071Y444941D01*
X734102Y445027D01*
X734055Y445023D01*
X733980Y445026D01*
X733004Y444924D01*
X732956Y444910D01*
X732866Y444894D01*
X731937Y444578D01*
X731893Y444554D01*
X731808Y444517D01*
X730973Y444003D01*
X730936Y443969D01*
X730861Y443915D01*
X730162Y443227D01*
X730132Y443186D01*
X730072Y443117D01*
X729543Y442290D01*
X729524Y442244D01*
X729480Y442163D01*
X729148Y441240D01*
X729140Y441190D01*
X729115Y441101D01*
X728997Y440127D01*
X729000Y440077D01*
X728996Y439991D01*
X729091Y438989D01*
X729105Y438940D01*
X729121Y438850D01*
X729437Y437894D01*
X729461Y437849D01*
X729497Y437765D01*
X730018Y436904D01*
X730051Y436866D01*
X730104Y436791D01*
X730804Y436067D01*
X730845Y436038D01*
X730914Y435977D01*
X731757Y435427D01*
X731803Y435407D01*
X731884Y435363D01*
X732828Y435015D01*
X732878Y435006D01*
X732966Y434981D01*
X733964Y434851D01*
X734007Y434853D01*
G37*
D10*
X95700Y271000D03*
D11*
X145700Y271000D03*
D12*
X457200Y183100D03*
X457200Y148100D03*
X145000Y431800D03*
X110000Y431800D03*
D13*
X101600Y71120D02*
X101600Y55880D01*
X76200Y55880D02*
X76200Y71120D01*
X50800Y71120D02*
X50800Y55880D01*
X228600Y55880D02*
X228600Y71120D01*
X203200Y71120D02*
X203200Y55880D01*
X177800Y55880D02*
X177800Y71120D01*
X482600Y71120D02*
X482600Y55880D01*
X457200Y55880D02*
X457200Y71120D01*
X431800Y71120D02*
X431800Y55880D01*
X355600Y55880D02*
X355600Y71120D01*
X330200Y71120D02*
X330200Y55880D01*
X304800Y55880D02*
X304800Y71120D01*
D14*
X215900Y215900D03*
X215900Y139700D03*
X254000Y368300D03*
X254000Y292100D03*
X190500Y249000D03*
X203200Y268050D03*
X215900Y249000D03*
X254000Y215900D03*
X254000Y139700D03*
X279400Y368300D03*
X279400Y292100D03*
X254000Y249000D03*
X266700Y268050D03*
X279400Y249000D03*
X330200Y215900D03*
X330200Y139700D03*
X330200Y368300D03*
X330200Y292100D03*
X381000Y249000D03*
X393700Y268050D03*
X406400Y249000D03*
X292100Y215900D03*
X292100Y139700D03*
X304800Y368300D03*
X304800Y292100D03*
X317500Y249000D03*
X330200Y268050D03*
X342900Y249000D03*
D13*
X330200Y398780D02*
X330200Y414020D01*
X304800Y414020D02*
X304800Y398780D01*
X279400Y398780D02*
X279400Y414020D01*
X254000Y414020D02*
X254000Y398780D01*
D15*
X330200Y435102D02*
X330200Y453898D01*
X304800Y453898D02*
X304800Y435102D01*
X279400Y435102D02*
X279400Y453898D01*
X254000Y453898D02*
X254000Y435102D01*
D13*
X215900Y436880D02*
X215900Y452120D01*
X190500Y452120D02*
X190500Y436880D01*
D16*
X524900Y321900D03*
X550300Y321900D03*
X575700Y321900D03*
X601100Y321900D03*
X626500Y321900D03*
X651900Y321900D03*
X677300Y321900D03*
X702700Y321900D03*
X728100Y321900D03*
X753500Y321900D03*
X778900Y321900D03*
X804300Y321900D03*
X829700Y321900D03*
X855100Y321900D03*
X855100Y398100D03*
X829700Y398100D03*
X804300Y398100D03*
X778900Y398100D03*
X753500Y398100D03*
X728100Y398100D03*
X702700Y398100D03*
X677300Y398100D03*
X651900Y398100D03*
X626500Y398100D03*
X601100Y398100D03*
X575700Y398100D03*
X550300Y398100D03*
X524900Y398100D03*
D14*
X526900Y275000D03*
X603100Y275000D03*
X807488Y132606D03*
X872512Y132606D03*
X807488Y87394D03*
X872512Y87394D03*
D15*
X824600Y193504D02*
X824600Y212300D01*
X824600Y237700D02*
X824600Y256496D01*
X850000Y212300D02*
X850000Y193504D01*
X850000Y237700D02*
X850000Y256496D01*
X875400Y212300D02*
X875400Y193504D01*
X875400Y237700D02*
X875400Y256496D01*
D14*
X740000Y280000D03*
X714600Y280000D03*
X765400Y280000D03*
D17*
X203200Y101600D03*
X330200Y101600D03*
D18*
X375000Y120000D03*
X150000Y120000D03*
M02*
