G04 EAGLE Gerber RS-274X export*
G75*
%MOMM*%
%FSLAX34Y34*%
%LPD*%
%INSoldermask Bottom*%
%IPPOS*%
%AMOC8*
5,1,8,0,0,1.08239X$1,22.5*%
G01*
%ADD10C,1.955800*%
%ADD11R,2.000000X2.000000*%
%ADD12C,2.387600*%
%ADD13C,1.727200*%
%ADD14C,2.082800*%
%ADD15C,2.082800*%
%ADD16C,1.828800*%
%ADD17C,1.259600*%
%ADD18C,1.209600*%

G36*
X707790Y429959D02*
X707790Y429959D01*
X707833Y429971D01*
X707899Y429980D01*
X709516Y430434D01*
X709557Y430453D01*
X709585Y430462D01*
X709595Y430464D01*
X709599Y430466D01*
X709620Y430473D01*
X711134Y431201D01*
X711170Y431227D01*
X711229Y431257D01*
X712594Y432238D01*
X712625Y432270D01*
X712678Y432310D01*
X713852Y433512D01*
X713877Y433549D01*
X713922Y433597D01*
X714869Y434985D01*
X714887Y435026D01*
X714923Y435082D01*
X715615Y436613D01*
X715626Y436656D01*
X715652Y436717D01*
X716067Y438346D01*
X716070Y438390D01*
X716085Y438455D01*
X716211Y440130D01*
X716207Y440177D01*
X716209Y440249D01*
X716004Y442085D01*
X715990Y442131D01*
X715978Y442206D01*
X715418Y443967D01*
X715395Y444009D01*
X715369Y444081D01*
X714476Y445698D01*
X714446Y445736D01*
X714406Y445801D01*
X713215Y447213D01*
X713178Y447244D01*
X713126Y447300D01*
X711682Y448453D01*
X711640Y448476D01*
X711578Y448520D01*
X709937Y449369D01*
X709891Y449384D01*
X709822Y449415D01*
X708047Y449928D01*
X707999Y449933D01*
X707924Y449951D01*
X706084Y450107D01*
X706040Y450103D01*
X705975Y450107D01*
X704144Y449947D01*
X704098Y449934D01*
X704022Y449924D01*
X702258Y449410D01*
X702214Y449389D01*
X702142Y449364D01*
X700512Y448515D01*
X700474Y448486D01*
X700408Y448447D01*
X698975Y447297D01*
X698943Y447261D01*
X698886Y447210D01*
X697705Y445802D01*
X697681Y445761D01*
X697635Y445700D01*
X697425Y445318D01*
X696751Y444088D01*
X696736Y444043D01*
X696702Y443974D01*
X696150Y442221D01*
X696144Y442174D01*
X696124Y442100D01*
X695925Y440273D01*
X695928Y440227D01*
X695922Y440158D01*
X696045Y438482D01*
X696056Y438439D01*
X696062Y438373D01*
X696474Y436743D01*
X696492Y436703D01*
X696510Y436639D01*
X697198Y435106D01*
X697223Y435069D01*
X697252Y435009D01*
X698196Y433619D01*
X698227Y433587D01*
X698265Y433533D01*
X699436Y432327D01*
X699473Y432301D01*
X699520Y432255D01*
X700882Y431271D01*
X700923Y431252D01*
X700977Y431215D01*
X702490Y430482D01*
X702533Y430470D01*
X702544Y430465D01*
X702571Y430452D01*
X702576Y430451D01*
X702593Y430443D01*
X704210Y429985D01*
X704255Y429980D01*
X704319Y429964D01*
X705991Y429793D01*
X706039Y429797D01*
X706118Y429793D01*
X707790Y429959D01*
G37*
G36*
X735781Y429959D02*
X735781Y429959D01*
X735824Y429971D01*
X735890Y429980D01*
X737507Y430434D01*
X737548Y430453D01*
X737576Y430462D01*
X737586Y430464D01*
X737590Y430466D01*
X737611Y430473D01*
X739125Y431201D01*
X739161Y431227D01*
X739220Y431257D01*
X740585Y432238D01*
X740616Y432270D01*
X740669Y432310D01*
X741843Y433512D01*
X741868Y433549D01*
X741913Y433597D01*
X742860Y434985D01*
X742878Y435026D01*
X742914Y435082D01*
X743606Y436613D01*
X743617Y436656D01*
X743643Y436717D01*
X744058Y438346D01*
X744061Y438390D01*
X744076Y438455D01*
X744202Y440130D01*
X744198Y440177D01*
X744200Y440249D01*
X743995Y442085D01*
X743981Y442131D01*
X743969Y442206D01*
X743409Y443967D01*
X743386Y444009D01*
X743360Y444081D01*
X742467Y445698D01*
X742437Y445736D01*
X742397Y445801D01*
X741206Y447213D01*
X741169Y447244D01*
X741117Y447300D01*
X739673Y448453D01*
X739631Y448476D01*
X739569Y448520D01*
X737928Y449369D01*
X737882Y449384D01*
X737813Y449415D01*
X736038Y449928D01*
X735990Y449933D01*
X735915Y449951D01*
X734075Y450107D01*
X734031Y450103D01*
X733966Y450107D01*
X732135Y449947D01*
X732089Y449934D01*
X732013Y449924D01*
X730249Y449410D01*
X730205Y449389D01*
X730133Y449364D01*
X728503Y448515D01*
X728465Y448486D01*
X728399Y448447D01*
X726966Y447297D01*
X726934Y447261D01*
X726877Y447210D01*
X725696Y445802D01*
X725672Y445761D01*
X725626Y445700D01*
X725416Y445318D01*
X724742Y444088D01*
X724727Y444043D01*
X724693Y443974D01*
X724141Y442221D01*
X724135Y442174D01*
X724115Y442100D01*
X723916Y440273D01*
X723919Y440227D01*
X723913Y440158D01*
X724036Y438482D01*
X724047Y438439D01*
X724053Y438373D01*
X724465Y436743D01*
X724483Y436703D01*
X724501Y436639D01*
X725189Y435106D01*
X725214Y435069D01*
X725243Y435009D01*
X726187Y433619D01*
X726218Y433587D01*
X726256Y433533D01*
X727427Y432327D01*
X727464Y432301D01*
X727511Y432255D01*
X728873Y431271D01*
X728914Y431252D01*
X728968Y431215D01*
X730481Y430482D01*
X730524Y430470D01*
X730535Y430465D01*
X730562Y430452D01*
X730567Y430451D01*
X730584Y430443D01*
X732201Y429985D01*
X732246Y429980D01*
X732310Y429964D01*
X733982Y429793D01*
X734030Y429797D01*
X734109Y429793D01*
X735781Y429959D01*
G37*
D10*
X95700Y271000D03*
D11*
X145700Y271000D03*
D12*
X457200Y183100D03*
X457200Y148100D03*
X145000Y431800D03*
X110000Y431800D03*
D13*
X101600Y71120D02*
X101600Y55880D01*
X76200Y55880D02*
X76200Y71120D01*
X50800Y71120D02*
X50800Y55880D01*
X228600Y55880D02*
X228600Y71120D01*
X203200Y71120D02*
X203200Y55880D01*
X177800Y55880D02*
X177800Y71120D01*
X482600Y71120D02*
X482600Y55880D01*
X457200Y55880D02*
X457200Y71120D01*
X431800Y71120D02*
X431800Y55880D01*
X355600Y55880D02*
X355600Y71120D01*
X330200Y71120D02*
X330200Y55880D01*
X304800Y55880D02*
X304800Y71120D01*
D14*
X215900Y215900D03*
X215900Y139700D03*
X254000Y368300D03*
X254000Y292100D03*
X190500Y249000D03*
X203200Y268050D03*
X215900Y249000D03*
X254000Y215900D03*
X254000Y139700D03*
X279400Y368300D03*
X279400Y292100D03*
X254000Y249000D03*
X266700Y268050D03*
X279400Y249000D03*
X330200Y215900D03*
X330200Y139700D03*
X330200Y368300D03*
X330200Y292100D03*
X381000Y249000D03*
X393700Y268050D03*
X406400Y249000D03*
X292100Y215900D03*
X292100Y139700D03*
X304800Y368300D03*
X304800Y292100D03*
X317500Y249000D03*
X330200Y268050D03*
X342900Y249000D03*
D13*
X330200Y398780D02*
X330200Y414020D01*
X304800Y414020D02*
X304800Y398780D01*
X279400Y398780D02*
X279400Y414020D01*
X254000Y414020D02*
X254000Y398780D01*
D15*
X330200Y435102D02*
X330200Y453898D01*
X304800Y453898D02*
X304800Y435102D01*
X279400Y435102D02*
X279400Y453898D01*
X254000Y453898D02*
X254000Y435102D01*
D13*
X215900Y436880D02*
X215900Y452120D01*
X190500Y452120D02*
X190500Y436880D01*
D16*
X524900Y321900D03*
X550300Y321900D03*
X575700Y321900D03*
X601100Y321900D03*
X626500Y321900D03*
X651900Y321900D03*
X677300Y321900D03*
X702700Y321900D03*
X728100Y321900D03*
X753500Y321900D03*
X778900Y321900D03*
X804300Y321900D03*
X829700Y321900D03*
X855100Y321900D03*
X855100Y398100D03*
X829700Y398100D03*
X804300Y398100D03*
X778900Y398100D03*
X753500Y398100D03*
X728100Y398100D03*
X702700Y398100D03*
X677300Y398100D03*
X651900Y398100D03*
X626500Y398100D03*
X601100Y398100D03*
X575700Y398100D03*
X550300Y398100D03*
X524900Y398100D03*
D14*
X526900Y275000D03*
X603100Y275000D03*
X807488Y132606D03*
X872512Y132606D03*
X807488Y87394D03*
X872512Y87394D03*
D15*
X824600Y193504D02*
X824600Y212300D01*
X824600Y237700D02*
X824600Y256496D01*
X850000Y212300D02*
X850000Y193504D01*
X850000Y237700D02*
X850000Y256496D01*
X875400Y212300D02*
X875400Y193504D01*
X875400Y237700D02*
X875400Y256496D01*
D14*
X740000Y280000D03*
X714600Y280000D03*
X765400Y280000D03*
D17*
X203200Y101600D03*
X330200Y101600D03*
D18*
X375000Y120000D03*
X150000Y120000D03*
M02*
